<svg xmlns="http://www.w3.org/2000/svg" xmlns:xlink="http://www.w3.org/1999/xlink" version="1.1" x="0px" y="0px" viewBox="0 0 100 125" xml:space="preserve"><g><path stroke="white" d="M29.331,22.372l7.765-1.126c9.083,3.704,19.248,3.704,28.316,0l7.779,1.126c0.326,0.044,0.607,0.252,0.756,0.548   c0.268,0.489,0.074,1.126-0.43,1.378c-14.181,6.253-30.332,6.253-44.513,0c-0.296-0.148-0.503-0.43-0.549-0.771   C28.368,22.979,28.768,22.446,29.331,22.372z"/></g><g><path stroke="white" d="M42.475,6.621c0.074-0.104,0.178-0.208,0.267-0.312c1.289-1.393,3.468-1.497,4.86-0.208c2.06,1.912,5.246,1.912,7.321,0   c0.104-0.089,0.207-0.178,0.311-0.252c1.541-1.111,3.689-0.756,4.801,0.771c2.578,3.556,4.401,7.602,5.35,11.883   c-6.505,2.638-13.617,3.408-20.538,2.208l1.497-6.179l-6.298,0.164l-1.021,4.52c-0.623-0.222-1.26-0.459-1.882-0.711   C38.088,14.223,39.911,10.177,42.475,6.621z"/></g><path stroke="white" d="M11.757,60.912c-2.268-3.512-1.275-8.193,2.223-10.46l-3.482-19.93c-0.104-0.534-0.03-1.067,0.192-1.556  c0.593-1.333,2.163-1.941,3.512-1.349L51.336,44.11l37.133-16.493c0.489-0.208,1.022-0.281,1.541-0.192  c1.452,0.251,2.415,1.645,2.163,3.097l-3.497,19.93c1.645,1.067,2.816,2.726,3.261,4.623c0.948,4.075-1.586,8.135-5.646,9.084  l-2.445,13.898c-0.133,0.801-0.638,1.482-1.349,1.883L51.336,96.965L20.174,79.939c-0.711-0.4-1.215-1.082-1.349-1.883L16.38,64.158  C14.483,63.713,12.824,62.559,11.757,60.912z M53.262,47.829v43.312l25.783-14.092c0.519-0.266,0.874-0.77,0.978-1.333l2.06-11.78  c-3.067-1.066-5.111-3.971-5.082-7.23c0.059-4.164,3.482-7.513,7.661-7.469l2.297-13.128c0.177-1.038-0.519-2.031-1.556-2.208  c-0.371-0.06-0.741-0.015-1.082,0.133L53.262,47.829z M18.352,34.034c-0.949-0.43-2.075,0.015-2.49,0.963  c-0.163,0.355-0.207,0.741-0.147,1.112l2.312,13.128c3.23-0.044,6.149,2.001,7.216,5.068c1.377,3.94-0.712,8.254-4.639,9.631  l2.045,11.78c0.104,0.563,0.459,1.067,0.963,1.333l25.783,14.092V47.829L18.352,34.034z"/><g><path stroke="white" d="M34.028,33.411c-0.534-1.793-0.444-3.734,0.296-5.468c0.8,0.251,1.615,0.474,2.431,0.697   c-1.097,2.208-0.593,4.875,1.23,6.534L34.028,33.411z"/></g><g><path stroke="white" d="M64.686,35.174c1.824-1.674,2.312-4.356,1.216-6.579c0.814-0.207,1.615-0.445,2.415-0.696   c0.756,1.734,0.859,3.69,0.312,5.512L64.686,35.174z"/></g></svg>