<?xml version="1.0" encoding="utf-8"?>
<!-- Generator: Adobe Illustrator 16.0.0, SVG Export Plug-In . SVG Version: 6.00 Build 0)  -->
<!DOCTYPE svg PUBLIC "-//W3C//DTD SVG 1.1//EN" "http://www.w3.org/Graphics/SVG/1.1/DTD/svg11.dtd">
<svg version="1.1" id="Capa_1" xmlns="http://www.w3.org/2000/svg" xmlns:xlink="http://www.w3.org/1999/xlink" x="0px" y="0px"
	 width="448.478px" height="208.49px" viewBox="0 0 448.478 208.49" enable-background="new 0 0 448.478 208.49"
	 xml:space="preserve">
<text transform="matrix(1 0 0 1 35.1504 100.3516)"><tspan x="0" y="0" fill="#1D1D1B" font-family="'Triump-Bold'" font-size="59.4459">CORRUP</tspan><tspan x="39.501" y="60.443" fill="#1D1D1B" font-family="'Triump-Bold'" font-size="59.4459">STAR</tspan></text>
<g>
	<path fill="#1D1D1B" d="M314.839,68.961c1.275-0.107,2.769-0.216,4.406-0.323c-1.621-4.539-2.708-10.961-3.065-13.268h-1.595
		l-28.771-21.74c-1.467-1.109-3.557-0.819-4.666,0.649c-1.109,1.469-0.818,3.557,0.651,4.667l28.397,21.46v8.946
		c0.943-0.095,1.936-0.174,2.985-0.257C313.716,69.052,314.269,69.008,314.839,68.961z"/>
	<path fill="#1D1D1B" d="M332.726,67.959v-4.848c2.088,0.716,4.86,1.717,7.762,2.896c1.301,0.525,2.631,1.097,3.937,1.691
		c0.688,0.313,1.365,0.632,2.03,0.959c-0.665-0.008-1.305-0.01-1.912-0.01c-8.229,0-22.037,0.626-29.623,1.26
		c-3.482,0.292-6.335,0.437-8.652,1.038c-2.291,0.561-4.262,1.869-5.012,4.224c-1.229,3.688-10.021,26.925-10.031,26.953
		l-0.465,1.224c-3.666,1.845-12.16,6.915-12.16,14.303c0,9.421,0,20.349,0,20.349h46.441V121.04h5.088v16.958h3.393V121.04h5.088
		v16.958h3.391V121.04h5.087v16.958h3.392V121.04h5.088v16.958h3.391V121.04h5.088v16.958h46.444c0,0,0-10.928,0-20.349
		c0-7.391-8.501-12.461-12.167-14.305l-0.465-1.222c-0.006-0.022-8.798-23.266-10.031-26.953c-0.747-2.355-2.715-3.663-5.008-4.224
		c-2.318-0.601-5.17-0.746-8.652-1.038c-4.113-0.343-10.053-0.685-15.939-0.926c-0.097-0.34-0.242-0.668-0.445-0.966
		c-0.191-0.284-0.428-0.542-0.714-0.765c-4.325-3.332-10.693-6.107-16.146-8.24c-5.432-2.109-9.867-3.459-9.916-3.473
		c-0.365-0.112-0.733-0.154-1.094-0.141c-0.131-0.016-0.268-0.026-0.404-0.026h-2.76c-0.353,2.263-1.402,8.479-2.972,13.001
		C326.634,68.216,329.703,68.073,332.726,67.959z M298.761,129.706c-4.688,0-8.48-3.795-8.48-8.478c0-4.682,3.793-8.478,8.48-8.478
		c4.679,0,8.475,3.796,8.475,8.478C307.237,125.911,303.439,129.706,298.761,129.706z M390.326,129.706
		c-4.683,0-8.478-3.795-8.478-8.478c0-4.682,3.795-8.478,8.478-8.478c4.682,0,8.478,3.796,8.478,8.478
		C398.804,125.911,395.008,129.706,390.326,129.706z M385.415,80.943c1.068,3.209,7.355,14.911,9.411,20.358H294.255
		c2.059-5.448,8.346-17.149,9.414-20.358c0.507-1.41,1.317-2.011,3.244-2.563c1.898-0.505,4.7-0.676,8.217-0.968
		c7.484-0.625,21.305-1.25,29.412-1.25c8.104,0,21.928,0.626,29.408,1.25c3.518,0.292,6.321,0.463,8.218,0.968
		C384.095,78.932,384.908,79.533,385.415,80.943z"/>
	<path fill="#1D1D1B" d="M332.726,77.377c-6.521,0.246-13.244,0.626-17.516,0.982l-1.395,0.114
		c-1.345,0.108-2.549,0.206-3.619,0.321v9.224v12.333h10.301v-9.115h1.93v9.115h10.299V88.018V77.377z"/>
	<circle fill="#1D1D1B" cx="318.964" cy="43.46" r="9.37"/>
	<polygon fill="#1D1D1B" points="321.046,56.995 318.131,55.328 318.131,59.076 321.046,57.411 	"/>
	<polygon fill="#1D1D1B" points="321.879,56.995 321.879,57.411 324.793,59.076 324.793,55.328 	"/>
	<circle fill="#1D1D1B" cx="321.461" cy="60.533" r="0.833"/>
	<circle fill="#1D1D1B" cx="321.461" cy="63.449" r="0.833"/>
	<circle fill="#1D1D1B" cx="321.461" cy="66.78" r="0.833"/>
	<path fill="#1D1D1B" d="M356.891,92.594c-0.448,0.003-0.905,0.082-1.349,0.258c-0.477,0.182-3.375,1.452-6.123,5.194
		c-0.506,0.687-1.002,1.455-1.477,2.307h21.229l5.612-7.789h-17.419C357.204,92.563,357.048,92.575,356.891,92.594z"/>
	<path fill="#1D1D1B" d="M359.247,83.474c1.173,5.041,6.211,8.173,11.248,6.999c5.04-1.172,8.172-6.208,7-11.248
		c-0.047-0.197-0.1-0.39-0.158-0.583c-0.647-0.056-1.336-0.112-2.066-0.17l-1.397-0.114c-3.515-0.292-8.692-0.603-14.052-0.84
		C359.013,79.323,358.763,81.398,359.247,83.474z"/>
	<path fill="#1D1D1B" d="M381.198,92.852c-0.443-0.176-0.9-0.256-1.352-0.258c-0.154-0.019-0.313-0.03-0.472-0.03h-1.513
		l-5.612,7.789h16.544c-0.472-0.852-0.967-1.62-1.474-2.305C384.574,94.304,381.676,93.033,381.198,92.852z"/>
	<path fill="#1D1D1B" d="M290.108,102.386l0.227-0.6l0.082-0.219c0.391-1.033,0.953-2.519,1.611-4.268h-2.597v-1.696
		c0-1.873-1.519-3.392-3.392-3.392h-10.176c-1.871,0-3.389,1.519-3.389,3.392v3.392c0,1.873,1.518,3.391,3.389,3.391h11.873h1.694
		H290.108L290.108,102.386z"/>
	<path fill="#1D1D1B" d="M413.219,92.211h-10.175c-1.873,0-3.392,1.519-3.392,3.392V97.3h-2.601
		c0.617,1.636,1.112,2.947,1.402,3.719l0.291,0.768l0.084,0.221l0.145,0.379h0.679h1.696h11.87c1.872,0,3.392-1.518,3.392-3.391
		v-3.392C416.61,93.73,415.091,92.211,413.219,92.211z"/>
	<path fill="#1D1D1B" d="M348.498,79.16h-7.911c-1.094,0-1.979,0.884-1.979,1.979c0,1.09,0.885,1.977,1.979,1.977h7.911
		c1.091,0,1.979-0.887,1.979-1.977C350.478,80.044,349.589,79.16,348.498,79.16z"/>
	<path fill="#1D1D1B" d="M276.713,140.114c0,0,0,8.793,5.653,8.793c0.267,0,0.646,0,1.129,0v12.433c0,1.874,1.52,3.393,3.393,3.393
		h13.566c1.87,0,3.393-1.519,3.393-3.393v-6.782c20.227,0,65.05,0,83.458,0v7.005c0,1.749,1.417,3.169,3.167,3.169h12.674
		c1.748,0,3.169-1.42,3.169-3.169v-12.656c0.15,0,0.29,0,0.405,0c5.649,0,5.649-8.795,5.649-8.795h-67.827h-67.829V140.114z"/>
	<path fill="#1D1D1B" d="M298.761,114.634c-3.639,0-6.596,2.954-6.596,6.595c0,3.636,2.957,6.594,6.596,6.594
		c3.632,0,6.592-2.958,6.592-6.594C305.353,117.588,302.393,114.634,298.761,114.634z"/>
	<path fill="#1D1D1B" d="M390.326,114.637c-3.635,0-6.589,2.954-6.589,6.589c0,3.64,2.954,6.597,6.589,6.597
		c3.638,0,6.595-2.958,6.595-6.597C396.921,117.591,393.964,114.637,390.326,114.637z"/>
</g>
<polygon fill="#1D1D1B" points="31.59,141.587 43.101,134.33 43.641,120.735 54.098,129.431 67.198,125.752 62.156,138.39 
	69.702,149.701 56.126,148.813 47.698,159.49 44.353,146.303 "/>
<polygon fill="#1D1D1B" points="231.61,117.212 240.378,127.618 253.918,126.288 246.74,137.839 252.18,150.313 238.971,147.051 
	228.802,156.078 227.817,142.506 216.084,135.624 228.688,130.501 "/>
</svg>
