<?xml version="1.0" encoding="utf-8"?>
<!-- Generator: Adobe Illustrator 16.0.0, SVG Export Plug-In . SVG Version: 6.00 Build 0)  -->
<!DOCTYPE svg PUBLIC "-//W3C//DTD SVG 1.1//EN" "http://www.w3.org/Graphics/SVG/1.1/DTD/svg11.dtd">
<svg version="1.1" id="Capa_1" xmlns="http://www.w3.org/2000/svg" xmlns:xlink="http://www.w3.org/1999/xlink" x="0px" y="0px"
	 width="1168px" height="319px" viewBox="0 0 1168 319" enable-background="new 0 0 1168 319" xml:space="preserve">
<g>
	<g>
		<path fill="#010101" d="M259.475,208.977l14.313,0.229c0.007,0.366,0.032,0.457,0.114,0.801l0,0h1.664
			c0.705,0.181-4.843-2.235,0-3.168c1.612-1.032,8.416-1.984,10.475-1.984c3.93,0,6.773,1.602,8.537,4.821l-5.254-1.188
			c0-6.558,5.313-7.29,11.872-7.29c6.554,0,11.868,0.732,11.868,7.29l-2.18-1.649c2.165-1.703,7.917-4.16,11.297-4.16
			c3.823,0,11.9-0.342,14.074,1.767c0.641-6.022,6.206-10.739,13.061-10.739c3.176-0.001,6.049,1.052,8.324,2.73l-0.002-19.549
			l0.49,0.014c0.054-0.422-0.082-0.706-0.117-1.13l25.16-0.798c0.095,0.632,0.191,1.261,0.191,1.915v98.924
			c0,7.104-5.755,12.86-12.858,12.861c-7.103,0-12.86-5.757-12.86-12.861v-19.554c-2.273,1.685-5.152,2.738-8.324,2.738
			c-4.332,0-8.146-1.91-10.548-4.815v18.987c0,4.919-5.321,8.906-11.869,8.906c-6.556,0-11.875-3.987-11.875-8.905v-24.397h-0.404
			c-2.126,2.033-4.997,3.3-8.167,3.3c-3.178,0-6.048-1.262-8.172-3.3H295.9V251c0,5.74-4.648,10.389-10.387,10.389
			c-3.052,0-5.766-1.339-7.67-3.432v2.82c0,5.897-4.777,10.678-10.668,10.679c-5.896,0-10.68-4.782-10.682-10.679l1.492-50.999
			C257.986,209.597,259.468,209.159,259.475,208.977z"/>
		<path fill="#010101" d="M302.512,255.756c-3.102,0-5.611,4.593-5.611,10.275c0,5.672,2.51,10.273,5.611,10.273
			c3.096-0.003,5.61-4.601,5.61-10.273C308.119,260.349,305.607,255.756,302.512,255.756z"/>
		<ellipse fill="#010101" cx="268.828" cy="286.233" rx="6.739" ry="8.683"/>
		<path fill="#010101" d="M371.018,291.635c-5.506,0-9.969,4.433-9.969,9.897c0,5.461,4.463,9.891,9.969,9.891s9.97-4.43,9.97-9.891
			C380.987,296.068,376.523,291.635,371.018,291.635z"/>
	</g>
	<rect x="158.508" y="168.476" fill="#010101" width="986.359" height="11.173"/>
	<g>
		<path fill="#010101" d="M135.636,208.476l-21.479-0.534c-0.009,0.366-0.055,0.72-0.136,1.064l0.32,0.008v-0.845
			c-0.705,0.182-1.4,0.379-2.086,0.608c-1.611-1.031-4.278-0.487-6.334-0.487c-3.932,0-6.547,1.04-8.313,4.258v-11.024
			c0-6.558-5.314-11.87-11.872-11.87c-6.555,0-11.87,5.313-11.87,11.871v5.08c-2.164-1.703-5.196-2.774-8.576-2.774
			c-3.823,0-7.184,1.38-9.357,3.489c-0.641-6.022-6.207-10.74-13.062-10.74c-3.176,0-6.049,1.052-8.323,2.731v-19.55l-0.49,0.015
			c-0.053-0.422,0.084-0.706,0.118-1.13l-25.161-0.798c-0.094,0.632-0.191,1.262-0.191,1.916v98.924
			c0,7.105,5.757,12.86,12.859,12.861c7.103,0,12.86-5.756,12.86-12.861v-19.554c2.274,1.685,5.152,2.739,8.325,2.739
			c4.331,0,8.146-1.91,10.548-4.816v18.988c0,4.919,5.319,8.906,11.868,8.906c6.557,0,11.875-3.986,11.875-8.905v-24.397h0.404
			c2.125,2.032,4.997,3.299,8.168,3.299c3.175,0,6.047-1.261,8.17-3.299h2.385v2.226c0,5.739,4.648,10.388,10.389,10.388
			c3.051,0,5.765-1.338,7.666-3.432v2.82c0,5.898,4.778,10.679,10.672,10.68c5.896-0.001,10.68-4.783,10.68-10.68v-54.635
			C135.693,208.833,135.643,208.657,135.636,208.476z"/>
		<path fill="#010101" d="M89.678,258.628c3.101,0,5.609,2.57,5.609,5.748c0,3.173-2.509,5.747-5.609,5.747
			c-3.096-0.001-5.611-2.573-5.611-5.747C84.068,261.198,86.582,258.628,89.678,258.628z"/>
		<path fill="#010101" d="M123.359,280.422c3.723,0,6.74,3.886,6.74,8.684c0,4.794-3.018,8.683-6.74,8.683
			c-3.72,0-6.738-3.889-6.738-8.683C116.621,284.309,119.64,280.422,123.359,280.422z"/>
		<path fill="#010101" d="M21.17,294.508c5.506,0,9.969,4.432,9.969,9.897c0,5.46-4.463,9.891-9.969,9.891
			c-5.504,0-9.969-4.43-9.969-9.891C11.201,298.94,15.666,294.508,21.17,294.508z"/>
	</g>
	<path fill="#010101" d="M178.489,116.223c1.211,0,1.782,0.713,1.782,1.994v6.905c0,1.283-0.571,1.996-1.782,1.996h-10.114v50.535
		c0,1.283-0.569,1.996-1.781,1.996h-9.542c-1.14,0-1.78-0.713-1.78-1.996v-50.535h-14.381c-1.213,0-1.781-0.713-1.781-1.996v-6.905
		c0-1.281,0.568-1.994,1.781-1.994H178.489z"/>
	<path fill="#010101" d="M182.691,134.247c0-12.067,4.721-15.889,16.012-15.889c11.29,0,16.068,3.822,16.068,15.889v16.01
		c0,12.067-4.778,15.892-16.068,15.892c-11.291,0-16.012-3.824-16.012-15.892V134.247z M194.042,152.646
		c0,4.421,1.134,5.855,4.661,5.855c3.525,0,4.721-1.434,4.721-5.855v-20.789c0-4.421-1.195-5.853-4.721-5.853
		c-3.527,0-4.661,1.432-4.661,5.853V152.646z"/>
	<path fill="#010101" d="M235.859,158.502c3.523,0,4.601-1.434,4.601-5.855v-32.318c0-1.075,0.536-1.673,1.491-1.673h7.768
		c1.016,0,1.494,0.598,1.494,1.673v29.929c0,12.067-4.6,15.892-15.354,15.892c-10.992,0-15.354-3.824-15.354-15.892v-29.929
		c0-1.075,0.48-1.673,1.494-1.673h8.004c1.016,0,1.494,0.598,1.494,1.673v32.318C231.498,157.068,232.634,158.502,235.859,158.502z"
		/>
	<path fill="#010101" d="M276.721,150.497c-0.539-2.152-1.436-3.047-2.988-3.047h-4.122v16.728c0,1.074-0.476,1.672-1.492,1.672
		h-8.007c-1.014,0-1.492-0.598-1.492-1.672v-38.173h-1.495c-1.015,0-1.492-0.599-1.492-1.674v-4.002
		c0-1.075,0.478-1.673,1.492-1.673h17.267c10.993,0,15.173,3.704,15.173,13.621v2.09c0,5.196-1.372,8.72-4.599,10.813
		c1.553,1.374,2.33,3.464,2.867,5.615l3.105,13.383c0.18,0.837,0.061,1.672-1.015,1.672h-7.946c-0.955,0-1.492,0-1.91-1.672
		L276.721,150.497z M269.61,126.004v14.754h4.304c3.404,0,4.658-1.196,4.658-4.838v-5.139c0-3.523-1.254-4.777-4.658-4.777H269.61z"
		/>
	<g>
		<path fill="#010101" d="M72.677,97.515v-3.856c0-1.084,0.482-1.687,1.507-1.687h7.833c1.024,0,1.507,0.603,1.507,1.687v1.989
			c0,11.389-4.941,15.305-15.848,15.305c-10.967,0-15.365-3.856-15.365-16.028V78.775c0-12.172,4.398-16.028,15.365-16.028
			c10.726,0,15.848,3.917,15.848,15.426v1.868c0,1.084-0.482,1.687-1.507,1.687h-7.833c-1.024,0-1.507-0.603-1.507-1.687v-3.736
			c0-4.398-1.265-5.845-4.7-5.845c-3.374,0-4.579,1.446-4.579,5.905v20.969c0,4.459,1.205,5.905,4.579,5.905
			C71.412,103.239,72.677,101.793,72.677,97.515z"/>
		<path fill="#010101" d="M87.923,78.775c0-12.172,4.761-16.028,16.149-16.028s16.209,3.856,16.209,16.028v16.149
			c0,12.172-4.82,16.028-16.209,16.028s-16.149-3.856-16.149-16.028V78.775z M99.371,97.334c0,4.459,1.146,5.905,4.701,5.905
			c3.555,0,4.76-1.446,4.76-5.905V76.365c0-4.459-1.205-5.905-4.76-5.905c-3.556,0-4.701,1.446-4.701,5.905V97.334z"/>
		<path fill="#010101" d="M145.289,95.165c-0.543-2.169-1.447-3.073-3.014-3.073h-4.158v16.872c0,1.084-0.481,1.687-1.506,1.687
			h-8.074c-1.024,0-1.507-0.603-1.507-1.687V70.459h-1.507c-1.023,0-1.506-0.603-1.506-1.687v-4.038
			c0-1.084,0.482-1.687,1.506-1.687h17.415c11.087,0,15.306,3.736,15.306,13.739v2.109c0,5.242-1.387,8.797-4.641,10.906
			c1.566,1.386,2.35,3.495,2.893,5.665l3.133,13.498c0.182,0.843,0.061,1.687-1.023,1.687h-8.015c-0.964,0-1.507,0-1.929-1.687
			L145.289,95.165z M138.117,70.459v14.883h4.339c3.435,0,4.7-1.205,4.7-4.881V75.28c0-3.555-1.266-4.821-4.7-4.821H138.117z"/>
		<path fill="#010101" d="M183.313,95.165c-0.543-2.169-1.446-3.073-3.014-3.073h-4.157v16.872c0,1.084-0.481,1.687-1.507,1.687
			h-8.074c-1.023,0-1.506-0.603-1.506-1.687V70.459h-1.507c-1.024,0-1.507-0.603-1.507-1.687v-4.038
			c0-1.084,0.482-1.687,1.507-1.687h17.415c11.086,0,15.305,3.736,15.305,13.739v2.109c0,5.242-1.386,8.797-4.64,10.906
			c1.566,1.386,2.35,3.495,2.892,5.665l3.134,13.498c0.181,0.843,0.061,1.687-1.024,1.687h-8.014c-0.965,0-1.507,0-1.929-1.687
			L183.313,95.165z M176.142,70.459v14.883h4.339c3.435,0,4.699-1.205,4.699-4.881V75.28c0-3.555-1.265-4.821-4.699-4.821H176.142z"
			/>
		<path fill="#010101" d="M217.6,103.239c3.555,0,4.641-1.446,4.641-5.905V64.735c0-1.084,0.541-1.687,1.506-1.687h7.834
			c1.023,0,1.506,0.603,1.506,1.687v30.189c0,12.172-4.641,16.028-15.486,16.028c-11.087,0-15.486-3.856-15.486-16.028V64.735
			c0-1.084,0.482-1.687,1.507-1.687h8.075c1.023,0,1.506,0.603,1.506,1.687v32.599C213.201,101.793,214.346,103.239,217.6,103.239z"
			/>
		<path fill="#010101" d="M251.646,92.936v16.028c0,1.084-0.482,1.687-1.506,1.687h-8.074c-1.025,0-1.508-0.603-1.508-1.687V70.459
			h-1.506c-1.024,0-1.506-0.603-1.506-1.687v-4.038c0-1.084,0.481-1.687,1.506-1.687h17.414c11.088,0,15.306,3.736,15.306,13.739
			v2.953c0,9.099-4.278,13.196-15.306,13.196H251.646z M251.646,70.459v15.787h4.338c3.436,0,4.701-1.205,4.701-4.941V75.28
			c0-3.555-1.266-4.821-4.701-4.821H251.646z"/>
	</g>
	<polygon fill="#010101" points="51.34,35.026 51.34,28.091 34.002,28.091 34.002,45.43 40.941,45.43 40.941,35.026 	"/>
	<path fill="#010101" d="M341.809,71.5v-4.291c5.055-0.948,8.863-5.073,8.863-10.005c0-5.629-4.969-10.21-11.071-10.21h-4.432
		c-1.213,0-2.217-0.918-2.217-2.043s1.004-2.04,2.217-2.04h4.432c1.214,0,2.208,0.915,2.208,2.04v2.049h8.863V44.95
		c0-4.933-3.809-9.055-8.863-10.002v-4.293h-8.856v4.293c-5.046,0.947-8.854,5.075-8.854,10.002c0,5.632,4.967,10.211,11.071,10.211
		h4.432c1.214,0,2.208,0.917,2.208,2.043c0,1.125-0.994,2.045-2.208,2.045h-4.432c-1.213,0-2.217-0.921-2.217-2.045v-2.043h-8.854
		v2.043c0,4.936,3.809,9.057,8.854,10.005V71.5H341.809z"/>
	<path fill="#010101" d="M24.476,19.814h345.24v140.618c4.583,0.468,9.162,0.856,13.741,0.657V12.943c0-3.744-3.125-6.87-6.871-6.87
		H17.605c-3.746,0-6.871,3.126-6.871,6.87v147.135c4.58,0.3,9.158,0.612,13.741,0.826V19.814z"/>
	<path fill="#F2E520" d="M122.686,206.839h-98.21v-36.773c-4.583-0.214-9.161-0.526-13.741-0.826v44.469
		c0,3.745,3.125,6.87,6.871,6.87h105.195C123.09,216.025,122.877,211.419,122.686,206.839z"/>
	<path fill="#010101" d="M260.41,220.579c0.081-4.555,0.616-9.116,1.04-13.74H131.801c0.143,4.589,0.295,9.171,0.064,13.74H260.41z"
		/>
	<path fill="#F2E520" d="M369.716,169.414v37.425h-99.118c-0.456,4.593-1.074,9.174-1.123,13.74h107.111
		c2.137,0,3.75-0.802,4.857-2.013c1.211-1.105,2.014-2.721,2.014-4.857v-43.65C378.854,170.159,374.289,169.811,369.716,169.414z"/>
	<g>
		<path fill="#010101" d="M21.021,145.175c-7.252,0-13.951,5.676-13.951,12.678v19.102c0,7.003,4.519,16.699,13.951,16.699
			c7.254,0,13.43-7.527,13.43-14.527v-17.643C34.451,154.482,28.274,145.175,21.021,145.175z"/>
	</g>
	<g>
		<path fill="#010101" d="M127.982,198.204c-6.507,0-12.709,4.138-12.709,9.306v13.022c0,5.167,5.279,13.402,11.786,13.402
			c6.507,0,12.05-5.555,12.05-10.723V210.19C139.109,205.022,134.491,198.204,127.982,198.204z"/>
	</g>
	<path fill="#010101" d="M383.363,242.871c0,6.071-5.406,10.993-12.076,10.993h-2.296c-6.67,0-12.077-4.922-12.077-10.993v-86.729
		c0-6.071,5.407-10.993,12.077-10.993h2.296c6.67,0,12.076,4.922,12.076,10.993V242.871z"/>
	<path fill="#010101" d="M277.338,238.08v21.335c0,5.914-4.795,10.708-10.708,10.708l0,0c-5.915,0-10.708-4.794-10.708-10.708
		v-46.029c0-5.914,4.793-10.707,10.708-10.707l0,0c5.913,0,10.708,4.793,10.708,10.707V238.08"/>
</g>
<g>
	<path d="M1103.838,193.753c0-39.508,59.953-39.484,59.951,0C1163.789,233.176,1103.838,233.202,1103.838,193.753L1103.838,193.753z
		 M1118.623,194.268c0,19.856,30.197,19.828,30.197,0C1148.82,174.426,1118.623,174.396,1118.623,194.268L1118.623,194.268z"/>
</g>
</svg>
