<?xml version="1.0" encoding="utf-8"?>
<!-- Generator: Adobe Illustrator 16.0.0, SVG Export Plug-In . SVG Version: 6.00 Build 0)  -->
<!DOCTYPE svg PUBLIC "-//W3C//DTD SVG 1.1//EN" "http://www.w3.org/Graphics/SVG/1.1/DTD/svg11.dtd">
<svg version="1.1" id="Capa_1" xmlns="http://www.w3.org/2000/svg" xmlns:xlink="http://www.w3.org/1999/xlink" x="0px" y="0px"
	 width="167px" height="217.5px" viewBox="0 0 167 217.5" enable-background="new 0 0 167 217.5" xml:space="preserve">
<path fill="#F4E61E" d="M82.11,4.953c-42.806,0-77.613,34.807-77.613,77.83c0,32.645,20.105,60.75,48.644,72.208l22.916,51.454
	c2.378,5.189,9.729,5.189,12.107,0l22.916-51.454c28.537-11.458,48.644-39.348,48.644-72.208
	C159.939,39.76,125.133,4.953,82.11,4.953z M82.11,132.507c-27.456,0-49.725-22.268-49.725-49.725S54.654,33.058,82.11,33.058
	s49.725,22.268,49.725,49.725S109.566,132.507,82.11,132.507z"/>
<circle fill="#FFFFFF" cx="82.014" cy="82.054" r="66.846"/>
<g>
	<path fill="#000100" d="M83.125,95.647c11.62,0,21.074-9.452,21.074-21.071c0-11.62-9.454-21.074-21.074-21.074
		c-11.619,0-21.068,9.455-21.068,21.074C62.057,86.196,71.506,95.647,83.125,95.647z M83.125,57.334
		c9.51,0,17.245,7.738,17.245,17.242s-7.735,17.242-17.245,17.242c-9.504,0-17.239-7.738-17.239-17.242S73.621,57.334,83.125,57.334
		z"/>
	<path fill="#000100" d="M86.96,81.601h-7.664c-1.168,0-1.917-0.634-1.917-1.066H73.55c0,2.7,2.578,4.895,5.746,4.895h1.917v2.554
		h3.83V85.43h1.917c3.168,0,5.746-2.195,5.746-4.895v-2.981c0-2.7-2.578-4.895-5.746-4.895h-7.664c-1.168,0-1.917-0.631-1.917-1.066
		v-2.981c0-0.421,0.766-1.063,1.917-1.063h7.664c1.151,0,1.911,0.642,1.911,1.063h3.835c0-2.7-2.578-4.892-5.746-4.892h-1.917
		v-2.554h-3.83v2.556h-1.917c-3.168,0-5.746,2.193-5.746,4.893v2.98c0,2.697,2.578,4.896,5.746,4.896h7.664
		c1.168,0,1.911,0.631,1.911,1.066v2.98C88.871,80.967,88.128,81.601,86.96,81.601z"/>
	<path fill="#000100" d="M57.23,92.367c-21.206-20.873-9.652-41.401-6.407-46.233c6.115,1.964,9.283,6.484,9.311,6.529l3.505,5.17
		v-6.248c0-15.653,15.762-24.683,19.492-26.6c3.729,1.912,19.487,10.906,19.487,26.6v6.162l3.498-5.08
		c0.033-0.05,3.201-4.57,9.322-6.537c3.251,4.818,14.854,25.3-6.413,46.236l2.688,2.73c26.209-25.804,6.21-52.089,6.006-52.352
		l-0.767-0.978l-1.201,0.297c-4.324,1.063-7.536,3.198-9.669,5.058c-2.831-17.165-21.321-25.638-22.175-26.019l-0.783-0.35
		l-0.782,0.353c-0.849,0.377-19.338,8.851-22.17,26.016c-2.132-1.856-5.35-3.992-9.669-5.058l-1.201-0.295l-0.761,0.978
		c-0.209,0.262-20.209,26.548,6,52.351L57.23,92.367z"/>
	<path fill="#000100" d="M51.391,52.938c-2.771,6.121-4.903,15.664,0.684,26.357l3.394-1.774
		c-4.865-9.328-3.009-17.658-0.584-23.002L51.391,52.938z"/>
	<path fill="#000100" d="M84.137,35.603c4.838,3.198,11.835,9.297,11.835,17.716h3.835c0-10.884-9.185-18.217-14.656-21.622
		l-1.008-0.628l-1.014,0.628c-5.471,3.391-14.645,10.705-14.645,21.625h3.835C72.319,44.87,79.306,38.79,84.137,35.603z"/>
	<path fill="#000100" d="M117.103,71.122c1.515-7.573-0.38-14.063-2.243-18.176l-3.492,1.579c1.631,3.6,3.295,9.272,1.978,15.845
		L117.103,71.122z"/>
	<path fill="#000100" d="M114.188,79.292c0.694-1.339,1.295-2.708,1.78-4.074l-3.609-1.287c-0.43,1.201-0.953,2.411-1.569,3.59
		L114.188,79.292z"/>
	<path fill="#000100" d="M123.406,109.467l-0.225-0.663c-0.595-1.773-2.258-2.962-4.133-2.962h-1.064
		c-1.16,0-2.253,0.451-3.076,1.266l-0.012,0.01l-0.055-0.387l-0.029-0.156c-0.341-1.359-1.33-2.476-2.648-2.987
		c-1.321-0.511-2.814-0.349-3.994,0.432l-0.287,0.189c-0.632,0.417-1.144,0.996-1.484,1.665l-3.297,6.552l-7.611-0.757
		c-0.208-0.021-0.42-0.058-0.624-0.108l-3.251-0.807c0.084-0.063,0.158-0.131,0.241-0.187l3.617-2.395
		c1.534-1.014,2.261-2.889,1.813-4.665l-0.249-1c-0.587-2.318-2.952-3.727-5.284-3.155l-2.382,0.592
		c-0.611,0.149-1.173,0.426-1.663,0.817L76.832,109.4c-1.804,1.432-4.069,2.222-6.381,2.222h-1.75v-5.783H42.686v23.127h26.016
		v-3.935l2.295,0.568c1.264,0.316,2.573,0.476,3.879,0.476h23.521c1.721,0,3.421-0.272,5.055-0.815l7.607-2.513
		c2.345-0.779,4.507-2.105,6.257-3.839l5.034-4.999C123.53,112.74,123.934,111.038,123.406,109.467z M108.984,107.176
		c0.112-0.224,0.282-0.417,0.499-0.557l0.282-0.189c0.408-0.268,0.902-0.322,1.359-0.146c0.424,0.167,0.74,0.505,0.869,0.934
		l0.341,2.44l-1.903,1.89c-0.932,0.927-2.221,1.386-3.538,1.255l-0.707-0.07L108.984,107.176z M65.812,126.077H45.574v-17.346h2.89
		v7.227h2.894v-7.227h14.454V126.077z M120.313,111.859l-5.034,4.997c-1.435,1.422-3.205,2.509-5.13,3.147l-7.604,2.515
		c-1.343,0.443-2.74,0.667-4.153,0.667H74.875c-1.073,0-2.146-0.133-3.185-0.391l-2.989-0.74v-7.542h1.75
		c2.96,0,5.865-1.012,8.178-2.847l10.875-8.637c0.166-0.131,0.357-0.225,0.565-0.276l2.382-0.59c0.79-0.191,1.588,0.276,1.783,1.054
		l0.254,1c0.149,0.588-0.096,1.209-0.607,1.548l-3.612,2.393c-2.557,1.688-3.771,4.812-3.026,7.772l0.461,1.827l2.803-0.705
		l-0.462-1.829c-0.157-0.632-0.157-1.274-0.037-1.887l4.165,1.033c0.342,0.083,0.69,0.145,1.039,0.179l11.396,1.133
		c2.183,0.216,4.312-0.542,5.861-2.077l4.478-4.444c0.274-0.274,0.645-0.426,1.039-0.426h1.064c0.632,0,1.193,0.399,1.393,0.992
		l0.221,0.665C120.836,110.905,120.703,111.47,120.313,111.859z"/>
	<rect x="48.464" y="118.85" fill="#000100" width="2.894" height="2.892"/>
	<path fill="#000100" d="M58.582,121.741c2.395,0,4.336-1.946,4.336-4.338c0-2.388-1.941-4.336-4.336-4.336
		c-2.391,0-4.336,1.948-4.336,4.336C54.246,119.795,56.191,121.741,58.582,121.741z M58.582,115.958
		c0.799,0,1.447,0.648,1.447,1.445c0,0.796-0.648,1.447-1.447,1.447c-0.794,0-1.442-0.651-1.442-1.447
		C57.14,116.606,57.788,115.958,58.582,115.958z"/>
</g>
</svg>
