<?xml version="1.0" encoding="utf-8"?>
<!-- Generator: Adobe Illustrator 16.0.0, SVG Export Plug-In . SVG Version: 6.00 Build 0)  -->
<!DOCTYPE svg PUBLIC "-//W3C//DTD SVG 1.1//EN" "http://www.w3.org/Graphics/SVG/1.1/DTD/svg11.dtd">
<svg version="1.1" id="Capa_1" xmlns="http://www.w3.org/2000/svg" xmlns:xlink="http://www.w3.org/1999/xlink" x="0px" y="0px"
	 width="98px" height="83.667px" viewBox="0 0 98 83.667" enable-background="new 0 0 98 83.667" xml:space="preserve">
<g>
	<g>
		<path fill="#010101" d="M65.134,54.367l3.483,0.056c0.002,0.089,0.008,0.111,0.028,0.195l0,0h0.405
			c0.172,0.044-1.18-0.544,0-0.771c0.393-0.251,2.049-0.483,2.549-0.483c0.957,0,1.648,0.39,2.078,1.173l-1.279-0.289
			c0-1.596,1.293-1.774,2.89-1.774c1.595,0,2.889,0.178,2.889,1.774l-0.53-0.401c0.527-0.414,1.928-1.012,2.749-1.012
			c0.931,0,2.897-0.083,3.426,0.43c0.155-1.466,1.511-2.614,3.179-2.614c0.773,0,1.473,0.256,2.026,0.665l-0.001-4.758l0.119,0.003
			c0.014-0.103-0.02-0.172-0.027-0.275l6.123-0.194c0.023,0.154,0.047,0.307,0.047,0.466v24.077c0,1.729-1.401,3.13-3.13,3.13
			c-1.729,0-3.13-1.401-3.13-3.13v-4.759c-0.554,0.41-1.254,0.667-2.026,0.667c-1.054,0-1.983-0.465-2.567-1.172v4.621
			c0,1.197-1.295,2.168-2.889,2.168c-1.596,0-2.891-0.971-2.891-2.167v-5.938h-0.098c-0.518,0.495-1.217,0.803-1.988,0.803
			c-0.773,0-1.472-0.307-1.988-0.803H74v0.542c0,1.397-1.132,2.529-2.529,2.529c-0.742,0-1.402-0.326-1.866-0.835v0.687
			c0,1.436-1.163,2.599-2.597,2.599c-1.436,0-2.6-1.164-2.6-2.599l0.363-12.412C64.771,54.518,65.132,54.411,65.134,54.367z"/>
		<ellipse fill="#010101" cx="75.608" cy="68.253" rx="1.366" ry="2.501"/>
		<ellipse fill="#010101" cx="67.41" cy="73.17" rx="1.641" ry="2.114"/>
		<ellipse fill="#010101" cx="92.282" cy="76.893" rx="2.427" ry="2.408"/>
	</g>
	<rect x="40.56" y="44.509" fill="#010101" width="54.791" height="2.72"/>
	<g>
		<path fill="#010101" d="M34.993,54.245l-5.228-0.13c-0.002,0.089-0.014,0.175-0.033,0.259l0.078,0.002V54.17
			c-0.172,0.044-0.342,0.092-0.508,0.148c-0.393-0.251-1.041-0.119-1.542-0.119c-0.957,0-1.593,0.253-2.022,1.036v-2.683
			c0-1.596-1.294-2.889-2.891-2.889c-1.595,0-2.889,1.293-2.889,2.889v1.236c-0.526-0.415-1.265-0.675-2.087-0.675
			c-0.931,0-1.749,0.335-2.278,0.849c-0.155-1.466-1.51-2.614-3.178-2.614c-0.773,0-1.473,0.256-2.026,0.665v-4.758l-0.119,0.003
			c-0.013-0.103,0.02-0.171,0.028-0.275L4.176,46.79c-0.023,0.154-0.047,0.307-0.047,0.466v24.077c0,1.729,1.4,3.13,3.129,3.13
			c1.729,0,3.131-1.401,3.131-3.13v-4.76c0.553,0.41,1.254,0.667,2.025,0.667c1.055,0,1.983-0.465,2.567-1.172v4.622
			c0,1.198,1.295,2.167,2.889,2.167c1.597,0,2.89-0.97,2.89-2.167v-5.938h0.1c0.518,0.494,1.216,0.803,1.988,0.803
			c0.771,0,1.471-0.307,1.988-0.803h0.58v0.542c0,1.397,1.131,2.528,2.528,2.528c0.743,0,1.403-0.326,1.866-0.835v0.686
			c0,1.436,1.162,2.6,2.597,2.6c1.436,0,2.6-1.164,2.6-2.6V54.376C35.007,54.332,34.994,54.289,34.993,54.245z"/>
		<ellipse fill="#010101" cx="23.807" cy="67.85" rx="1.365" ry="1.399"/>
		<ellipse fill="#010101" cx="32.005" cy="73.869" rx="1.641" ry="2.113"/>
		<ellipse fill="#010101" cx="7.133" cy="77.592" rx="2.427" ry="2.408"/>
	</g>
	<path fill="#010101" d="M45.423,31.792c0.295,0,0.434,0.173,0.434,0.485v1.681c0,0.313-0.139,0.485-0.434,0.485h-2.462v12.3
		c0,0.313-0.139,0.486-0.434,0.486h-2.322c-0.277,0-0.434-0.174-0.434-0.486v-12.3h-3.5c-0.295,0-0.434-0.173-0.434-0.485v-1.681
		c0-0.312,0.139-0.485,0.434-0.485H45.423z"/>
	<path fill="#010101" d="M46.445,36.178c0-2.937,1.149-3.867,3.897-3.867c2.747,0,3.911,0.93,3.911,3.867v3.897
		c0,2.937-1.164,3.868-3.911,3.868c-2.748,0-3.897-0.931-3.897-3.868V36.178z M49.208,40.656c0,1.076,0.276,1.425,1.135,1.425
		s1.149-0.349,1.149-1.425v-5.059c0-1.077-0.291-1.425-1.149-1.425s-1.135,0.348-1.135,1.425V40.656z"/>
	<path fill="#010101" d="M59.387,42.082c0.857,0,1.119-0.349,1.119-1.425v-7.866c0-0.261,0.131-0.407,0.363-0.407h1.891
		c0.247,0,0.363,0.146,0.363,0.407v7.285c0,2.937-1.119,3.868-3.736,3.868c-2.676,0-3.738-0.931-3.738-3.868v-7.285
		c0-0.261,0.117-0.407,0.364-0.407h1.948c0.247,0,0.363,0.146,0.363,0.407v7.866C58.324,41.732,58.602,42.082,59.387,42.082z"/>
	<path fill="#010101" d="M69.331,40.134c-0.131-0.524-0.349-0.742-0.728-0.742h-1.003v4.071c0,0.262-0.116,0.407-0.363,0.407h-1.948
		c-0.247,0-0.363-0.146-0.363-0.407v-9.291h-0.364c-0.247,0-0.363-0.146-0.363-0.408v-0.974c0-0.261,0.116-0.407,0.363-0.407h4.202
		c2.676,0,3.693,0.901,3.693,3.315v0.509c0,1.265-0.334,2.122-1.119,2.631c0.378,0.334,0.566,0.844,0.697,1.367l0.756,3.257
		c0.045,0.204,0.016,0.407-0.246,0.407H70.61c-0.232,0-0.362,0-0.464-0.407L69.331,40.134z M67.601,34.172v3.591h1.048
		c0.828,0,1.134-0.291,1.134-1.177v-1.251c0-0.858-0.306-1.163-1.134-1.163H67.601z"/>
	<g>
		<path fill="#010101" d="M19.668,27.239V26.3c0-0.264,0.117-0.411,0.366-0.411h1.906c0.249,0,0.366,0.147,0.366,0.411v0.484
			c0,2.771-1.202,3.725-3.856,3.725c-2.669,0-3.739-0.938-3.739-3.9v-3.93c0-2.962,1.07-3.9,3.739-3.9
			c2.61,0,3.856,0.953,3.856,3.754v0.455c0,0.264-0.117,0.411-0.366,0.411h-1.906c-0.249,0-0.366-0.146-0.366-0.411v-0.909
			c0-1.07-0.309-1.422-1.145-1.422c-0.82,0-1.114,0.352-1.114,1.437v5.103c0,1.085,0.294,1.437,1.114,1.437
			C19.359,28.632,19.668,28.28,19.668,27.239z"/>
		<path fill="#010101" d="M23.379,22.678c0-2.962,1.158-3.9,3.93-3.9s3.945,0.938,3.945,3.9v3.93c0,2.962-1.174,3.9-3.945,3.9
			s-3.93-0.938-3.93-3.9V22.678z M26.165,27.195c0,1.085,0.278,1.437,1.144,1.437s1.158-0.352,1.158-1.437v-5.103
			c0-1.085-0.293-1.437-1.158-1.437s-1.144,0.352-1.144,1.437V27.195z"/>
		<path fill="#010101" d="M37.34,26.667c-0.132-0.528-0.352-0.748-0.732-0.748h-1.012v4.106c0,0.264-0.117,0.411-0.367,0.411h-1.965
			c-0.25,0-0.367-0.146-0.367-0.411v-9.37H32.53c-0.249,0-0.366-0.146-0.366-0.411v-0.982c0-0.264,0.117-0.411,0.366-0.411h4.237
			c2.699,0,3.725,0.909,3.725,3.343v0.514c0,1.275-0.336,2.141-1.129,2.654c0.382,0.337,0.572,0.851,0.704,1.378l0.763,3.285
			c0.044,0.206,0.015,0.411-0.249,0.411h-1.95c-0.234,0-0.367,0-0.47-0.411L37.34,26.667z M35.596,20.655v3.622h1.055
			c0.836,0,1.145-0.293,1.145-1.188v-1.261c0-0.865-0.309-1.173-1.145-1.173H35.596z"/>
		<path fill="#010101" d="M46.595,26.667c-0.132-0.528-0.353-0.748-0.733-0.748H44.85v4.106c0,0.264-0.117,0.411-0.367,0.411h-1.965
			c-0.249,0-0.366-0.146-0.366-0.411v-9.37h-0.366c-0.25,0-0.367-0.146-0.367-0.411v-0.982c0-0.264,0.117-0.411,0.367-0.411h4.237
			c2.698,0,3.725,0.909,3.725,3.343v0.514c0,1.275-0.337,2.141-1.129,2.654c0.382,0.337,0.571,0.851,0.704,1.378l0.762,3.285
			c0.045,0.206,0.016,0.411-0.248,0.411h-1.951c-0.234,0-0.366,0-0.469-0.411L46.595,26.667z M44.85,20.655v3.622h1.056
			c0.836,0,1.144-0.293,1.144-1.188v-1.261c0-0.865-0.308-1.173-1.144-1.173H44.85z"/>
		<path fill="#010101" d="M54.939,28.632c0.865,0,1.129-0.352,1.129-1.437v-7.933c0-0.264,0.133-0.411,0.367-0.411h1.906
			c0.25,0,0.367,0.147,0.367,0.411v7.347c0,2.962-1.13,3.9-3.77,3.9c-2.697,0-3.768-0.938-3.768-3.9v-7.347
			c0-0.264,0.117-0.411,0.365-0.411h1.966c0.249,0,0.366,0.147,0.366,0.411v7.933C53.869,28.28,54.148,28.632,54.939,28.632z"/>
		<path fill="#010101" d="M63.227,26.125v3.9c0,0.264-0.117,0.411-0.367,0.411h-1.965c-0.249,0-0.366-0.146-0.366-0.411v-9.37
			h-0.366c-0.25,0-0.367-0.146-0.367-0.411v-0.982c0-0.264,0.117-0.411,0.367-0.411h4.237c2.698,0,3.725,0.909,3.725,3.343v0.719
			c0,2.214-1.041,3.211-3.725,3.211H63.227z M63.227,20.655v3.842h1.056c0.836,0,1.144-0.293,1.144-1.202v-1.466
			c0-0.865-0.308-1.173-1.144-1.173H63.227z"/>
	</g>
	<polygon fill="#010101" points="14.477,12.029 14.477,10.341 10.256,10.341 10.256,14.561 11.945,14.561 11.945,12.029 	"/>
	<path fill="#010101" d="M85.173,20.907v-1.045c1.23-0.23,2.157-1.234,2.157-2.435c0-1.37-1.209-2.485-2.695-2.485h-1.078
		c-0.295,0-0.539-0.223-0.539-0.497s0.244-0.496,0.539-0.496h1.078c0.296,0,0.538,0.222,0.538,0.496v0.499h2.157v-0.499
		c0-1.2-0.927-2.204-2.157-2.434v-1.045h-2.155v1.045c-1.229,0.23-2.155,1.235-2.155,2.434c0,1.371,1.208,2.485,2.694,2.485h1.078
		c0.296,0,0.538,0.224,0.538,0.497c0,0.274-0.242,0.498-0.538,0.498h-1.078c-0.295,0-0.539-0.224-0.539-0.498V16.93h-2.155v0.497
		c0,1.202,0.927,2.205,2.155,2.435v1.045H85.173z"/>
	<path fill="#010101" d="M7.938,8.327h84.027v34.225c1.115,0.114,2.23,0.208,3.345,0.159V6.654c0-0.911-0.761-1.672-1.673-1.672
		H6.266c-0.912,0-1.672,0.761-1.672,1.672v35.812c1.114,0.072,2.229,0.148,3.344,0.201V8.327z"/>
	<path fill="#F2E520" d="M31.841,53.846H7.938v-8.95c-1.115-0.052-2.229-0.128-3.344-0.202v10.824c0,0.911,0.76,1.672,1.672,1.672
		h25.604C31.939,56.082,31.888,54.961,31.841,53.846z"/>
	<path fill="#010101" d="M65.361,57.19c0.02-1.108,0.15-2.219,0.254-3.344H34.06c0.034,1.117,0.071,2.232,0.016,3.344H65.361z"/>
	<path fill="#F2E520" d="M91.965,44.737v9.109H67.842c-0.111,1.118-0.262,2.233-0.273,3.344h26.068c0.521,0,0.914-0.195,1.183-0.49
		c0.295-0.269,0.49-0.663,0.49-1.182V44.895C94.189,44.918,93.078,44.834,91.965,44.737z"/>
	<g>
		<path fill="#010101" d="M7.098,38.838c-1.766,0-3.396,1.381-3.396,3.085v4.65c0,1.704,1.1,4.064,3.396,4.064
			c1.766,0,3.268-1.832,3.268-3.536v-4.294C10.365,41.103,8.862,38.838,7.098,38.838z"/>
	</g>
	<g>
		<path fill="#010101" d="M33.131,51.745c-1.584,0-3.094,1.007-3.094,2.265v3.17c0,1.257,1.285,3.262,2.868,3.262
			c1.585,0,2.933-1.352,2.933-2.61v-3.169C35.838,53.404,34.715,51.745,33.131,51.745z"/>
	</g>
	<path fill="#010101" d="M95.287,62.616c0,1.477-1.316,2.675-2.939,2.675h-0.559c-1.624,0-2.939-1.198-2.939-2.675V41.507
		c0-1.477,1.315-2.675,2.939-2.675h0.559c1.623,0,2.939,1.198,2.939,2.675V62.616z"/>
	<path fill="#010101" d="M69.481,61.45v5.193c0,1.439-1.167,2.606-2.606,2.606l0,0c-1.439,0-2.605-1.167-2.605-2.606V55.44
		c0-1.439,1.166-2.606,2.605-2.606l0,0c1.439,0,2.606,1.167,2.606,2.606V61.45"/>
</g>
</svg>
