<?xml version="1.0" encoding="utf-8"?>
<!-- Generator: Adobe Illustrator 16.0.0, SVG Export Plug-In . SVG Version: 6.00 Build 0)  -->
<!DOCTYPE svg PUBLIC "-//W3C//DTD SVG 1.1//EN" "http://www.w3.org/Graphics/SVG/1.1/DTD/svg11.dtd">
<svg version="1.1" id="Capa_1" xmlns="http://www.w3.org/2000/svg" xmlns:xlink="http://www.w3.org/1999/xlink" x="0px" y="0px"
	 width="101px" height="131px" viewBox="0 0 101 131" enable-background="new 0 0 101 131" xml:space="preserve">
<path fill="#F4E61E" d="M95.456,49.939c0-25.589-20.702-46.292-46.292-46.292C23.703,3.647,3,24.35,3,49.939
	c0,19.417,11.959,36.134,28.933,42.949l13.631,30.605c1.415,3.086,5.786,3.086,7.201,0l13.63-30.604
	C83.369,85.945,95.456,69.356,95.456,49.939z"/>
<g>
	<path fill="#000100" d="M38.281,41.826c-1.645,0-2.982,1.322-2.982,2.947s1.338,2.947,2.982,2.947c1.648,0,2.986-1.323,2.986-2.947
		S39.93,41.826,38.281,41.826z M38.281,45.756c-0.562,0-1.019-0.442-1.019-0.983c0-0.541,0.457-0.982,1.019-0.982
		c0.565,0,1.023,0.442,1.023,0.982C39.305,45.314,38.847,45.756,38.281,45.756z"/>
	<path fill="#000100" d="M80.09,52.631l-1.474-1.474l1.065-1.066V23.166h-3.463L65.792,38.333l-0.843-0.842l-2.519,2.519
		l-15.912,6.552l-1.058-1.059l1.25-1.224L25.079,23.166h-6.294v30.035l-0.419,0.413l9.415,9.232l1.402-1.376l3.929,3.93
		l-0.288,0.288c-1.466,1.466-1.466,3.851,0,5.317c0.733,0.734,1.697,1.101,2.659,1.101c0.063,0,0.125-0.015,0.189-0.019
		c-0.053,1.024,0.299,2.064,1.081,2.847c0.731,0.734,1.695,1.102,2.657,1.102c0.065,0,0.127-0.016,0.189-0.02
		c-0.052,1.025,0.302,2.066,1.082,2.848c0.732,0.734,1.696,1.101,2.659,1.101c0.344,0,0.686-0.063,1.021-0.158
		c-0.016,0.126-0.037,0.254-0.037,0.383c0,1.034,0.4,2.006,1.132,2.736c0.731,0.733,1.701,1.133,2.736,1.133
		s2.005-0.401,2.736-1.133l3.063-3.063c0.025-0.024,0.04-0.05,0.063-0.075c0.352,0.103,0.709,0.173,1.072,0.173
		c0.963,0,1.926-0.367,2.66-1.101c0.777-0.78,1.131-1.821,1.081-2.847c0.063,0.003,0.125,0.019,0.188,0.019
		c0.962,0,1.926-0.367,2.659-1.1c0.781-0.782,1.132-1.823,1.082-2.848c0.062,0.002,0.124,0.018,0.187,0.018
		c0.962,0,1.926-0.367,2.659-1.1c1.225-1.225,1.41-3.084,0.589-4.52L80.09,52.631z M77.253,25.13h0.466v24.147l-0.493,0.491
		L67.203,39.746L77.253,25.13z M77.311,52.631L64.949,64.993L52.607,52.649c0.012-0.024,0.025-0.049,0.033-0.072l12.309-12.308
		L77.311,52.631z M58.818,43.623l-4.835,4.835l-0.381-0.573c-1.707,1.135-3.521,4.857-5.389,11.063
		c-0.379,1.255-1.717,1.981-2.985,1.619c-0.663-0.189-1.195-0.633-1.504-1.25c-0.305-0.616-0.34-1.309-0.094-1.953l3.424-8.897
		L58.818,43.623z M21.171,53.613l2.289-2.246l-1.376-1.402l-1.334,1.308V25.13h3.529l11.592,11.315L23.567,48.51l1.375,1.403
		l12.334-12.096l6.626,6.467l-16.121,15.81L21.171,53.613z M34.212,69.615c-0.699-0.701-0.699-1.839,0-2.54l2.948-2.946
		c0.351-0.349,0.811-0.525,1.271-0.525c0.457,0,0.918,0.175,1.269,0.525c0.701,0.701,0.701,1.839,0,2.541l-2.946,2.946
		C36.053,70.316,34.914,70.316,34.212,69.615z M38.143,73.544c-0.701-0.7-0.701-1.84,0-2.54l2.946-2.947
		c0.351-0.349,0.81-0.525,1.271-0.525c0.46,0,0.921,0.174,1.27,0.525c0.701,0.7,0.701,1.84,0,2.54l-2.946,2.947
		C39.98,74.245,38.842,74.245,38.143,73.544z M42.07,77.473c-0.698-0.7-0.698-1.839,0-2.539l2.949-2.946
		c0.348-0.351,0.808-0.526,1.269-0.526c0.46,0,0.921,0.175,1.271,0.526c0.7,0.7,0.7,1.839,0,2.539l-2.947,2.947
		C43.912,78.173,42.772,78.173,42.07,77.473z M49.541,81.536c-0.742,0.745-1.951,0.745-2.695,0c-0.745-0.742-0.745-1.951,0-2.695
		l3.064-3.063c0.37-0.372,0.858-0.557,1.346-0.557c0.489,0,0.978,0.186,1.348,0.557c0.744,0.743,0.744,1.952,0,2.696L49.541,81.536z
		 M64.255,69.615c-0.698,0.701-1.839,0.701-2.54,0l-7.856-7.856l-0.983-0.983l-1.388,1.388l0.983,0.984l7.855,7.856
		c0.699,0.7,0.699,1.84,0,2.54c-0.701,0.701-1.841,0.701-2.539,0l-7.857-7.856l-0.982-0.984l-1.389,1.39l0.983,0.982l7.856,7.857
		c0.698,0.7,0.698,1.839,0,2.539c-0.379,0.377-0.881,0.543-1.376,0.515c0.062-0.279,0.104-0.567,0.104-0.861
		c0-1.034-0.403-2.006-1.132-2.737c-1.038-1.037-2.617-1.324-3.973-0.89c0.069-1.042-0.281-2.107-1.075-2.902
		c-0.781-0.78-1.824-1.133-2.849-1.082c0.053-1.025-0.298-2.066-1.079-2.846c-0.782-0.781-1.824-1.135-2.85-1.083
		c0.053-1.024-0.297-2.065-1.081-2.847c-1.463-1.466-3.852-1.466-5.316,0L34.5,64.01l-3.915-3.916L44.059,46.88l1.085,1.083
		l-3.347,8.696c-0.439,1.146-0.38,2.435,0.17,3.534c0.55,1.101,1.539,1.925,2.722,2.262c0.398,0.115,0.802,0.168,1.196,0.168
		c1.889,0,3.643-1.228,4.207-3.109c0.561-1.854,1.129-3.506,1.685-4.917l12.479,12.478C64.956,67.776,64.956,68.915,64.255,69.615z"
		/>
	<path fill="#000100" d="M60.508,55.944c1.105,1.104,2.901,1.104,4.008,0l1.309-1.31c0.164-0.164,0.384-0.255,0.614-0.255
		c0.231,0,0.45,0.091,0.614,0.255c0.342,0.34,0.342,0.892,0,1.23l-1.309,1.309c-0.338,0.339-0.89,0.339-1.229,0l-1.391,1.389
		c0.553,0.551,1.278,0.83,2.006,0.83c0.706,0,1.412-0.268,1.959-0.794l0.62,0.618l1.388-1.389l-0.619-0.62
		c1.064-1.107,1.058-2.873-0.034-3.964c-1.104-1.104-2.903-1.104-4.008,0l-1.312,1.31c-0.341,0.34-0.891,0.34-1.229,0
		c-0.338-0.338-0.338-0.891,0-1.23l1.309-1.308c0.338-0.339,0.89-0.34,1.231,0l1.388-1.389c-1.092-1.092-2.858-1.1-3.965-0.035
		l-0.617-0.62l-1.391,1.39l0.619,0.619C59.406,53.087,59.416,54.853,60.508,55.944z"/>
</g>
</svg>
