<svg xmlns:dc="http://purl.org/dc/elements/1.1/" xmlns:cc="http://creativecommons.org/ns#" xmlns:rdf="http://www.w3.org/1999/02/22-rdf-syntax-ns#" xmlns:svg="http://www.w3.org/2000/svg" xmlns="http://www.w3.org/2000/svg" xmlns:sodipodi="http://sodipodi.sourceforge.net/DTD/sodipodi-0.dtd" xmlns:inkscape="http://www.inkscape.org/namespaces/inkscape" version="1.1" x="0px" y="0px" viewBox="0 0 100 125"><g transform="translate(0,-952.36218)"><path style="text-indent:0;text-transform:none;direction:ltr;block-progression:tb;baseline-shift:baseline;color:#FAB900;enable-background:accumulate;" d="m 42.00002,974.36218 c -6.74274,0 -11.35415,4.0082 -14.71875,7.375 -1.63128,1.6324 -3.05808,3.1493 -4.28125,4.1562 0,-2.544 -1.56966,-3.4827 -3,-3.5312 -5.09146,0 -10.2455697,0 -15.3124997,0 -1.46384,0.1534 -2.69537,1.5282 -2.6875,3 l 0,36.00002 c 1.6e-4,1.5708 1.42925,2.9998 3,3 l 14.9999997,0 c 0.5986,0 1.19489,-0.1911 1.6875,-0.5312 4.55565,4.5509 10.54861,6.5312 16.3125,6.5312 l 15.999997,0 c 4.38011,0 8,-3.6199 8,-8 0,-0.8107 -0.23885,-1.572 -0.46875,-2.3125 3.63614,-0.7456 6.46875,-3.8485 6.46875,-7.6875 0,-0.7665 -0.23111,-1.4829 -0.4375,-2.1875 1.32461,-0.1636 2.69052,-0.5222 3.90625,-1.5313 1.69775,-1.4088 2.53125,-3.7237 2.53125,-6.2812 0,-0.8733 -0.28136,-1.4925 -0.59375,-2 l 14.59375,0 c 5.53122,-0.06 9.91624,-3.87862 10,-9.00002 -0.31051,-5.8308 -4.93369,-8.9521 -10,-9 l -21.375,0 c -1.13572,-5.3255 -5.94439,-7.9451 -10.625,-8 z m 0,6 13.999997,0 c 1.91512,0.092 3.51318,0.5377 4.46875,2.0312 -1.50356,0.2135 -2.70127,1.7238 -2.56663,3.2365 0.13463,1.5127 1.58024,2.7877 3.09788,2.7323 l 27,0 c 2.28859,0.021 3.98185,1.1201 4,3 -0.11077,2.3804 -2.22215,2.9826 -4,3 -8,-0.013 -17,-0.013 -24.125,0.125 -0.52219,0.1334 -1.8086,0.5504 -2.28125,2.1562 -0.38616,1.5746 0.32986,2.7013 1.40625,3.62502 2,1.081 5,1.081 5,2.081 0,2 -1.16635,2.0062 -2,2.0128 l -6,0 c -1.55665,0.022 -2.95787,1.4432 -2.95787,3 0,1.5568 1.40122,2.978 2.95787,3 1.15989,0 2,0.8401 2,2 0,1.1599 -0.84011,2 -2,2 l -6,0 c -1.55665,0.022 -2.95787,1.4432 -2.95787,3 0,1.5568 1.40122,2.978 2.95787,3 1.15989,0 2,0.8401 2,2 0,1.1599 -0.84011,2 -2,2 l -15.999997,0 c -6.0285,0 -11.47376,-2.2771 -15,-8.875 l 0,-22.78122 c 3.55261,-1.3112 6.10444,-4.3434 8.5,-6.75 3.13107,-3.1332 6.08814,-5.5938 10.5,-5.5938 z m -33.9999997,8 8.9999997,0 c -0.004,10.2991 -10e-6,21.08472 0,30.00002 l -8.9999997,0 z" fill="#FAB900" fill-opacity="1" stroke="none" marker="none" visibility="visible" display="inline" overflow="visible"/></g></svg>