<svg xmlns="http://www.w3.org/2000/svg" width="768.9" height="123.9"><defs><style>.cls-1{fill:#eb65ef}.cls-2{fill:#fff}</style></defs><g id="Layer_2" data-name="Layer 2"><g id="Layer_1-2" data-name="Layer 1"><path class="cls-1" d="M50.4 57.7v14.6H0V.6h49.4v14.5H16.5v14h28.3v13.4H16.5v15.2zM68 72.3V.6h16.6v57.1h34.7v14.6zM185 57.7v14.6h-50.4V.6h49.5v14.5h-32.9v14h28.2v13.4h-28.2v15.2zM197 35.8a35.8 35.8 0 012.4-12.8A35 35 0 01232.9.2c6.7 0 12.6 1.4 17.5 4.3a28.7 28.7 0 0111.1 11.3l-12.7 8.9a18.3 18.3 0 00-3.1-4.7 19.6 19.6 0 00-4.1-3 15.7 15.7 0 00-4.6-1.6 23 23 0 00-4.5-.5 17 17 0 00-8.3 2 17.3 17.3 0 00-5.8 4.9 20.4 20.4 0 00-3.5 6.9 28.7 28.7 0 00-1.1 7.7 27.6 27.6 0 001.3 8.2 24.9 24.9 0 003.8 7 19.9 19.9 0 006 4.8 17.9 17.9 0 007.8 1.7 24.9 24.9 0 004.6-.5 22 22 0 004.5-1.7 14.9 14.9 0 004-3.1 14.1 14.1 0 003-4.6l13.5 8a22.3 22.3 0 01-4.8 7.1 29.3 29.3 0 01-7.3 5.2 44.3 44.3 0 01-8.8 3.3 41.1 41.1 0 01-9.1 1.1 32.6 32.6 0 01-14.3-3.2 37 37 0 01-11.2-8.4 38.4 38.4 0 01-7.2-12 35.2 35.2 0 01-2.6-13.5zM273.3 35.8a35.8 35.8 0 012.4-12.8 35.5 35.5 0 0118.4-19.7A34.5 34.5 0 01309.2.2c6.7 0 12.6 1.4 17.5 4.3a28.7 28.7 0 0111.1 11.3L325 24.7a15.8 15.8 0 00-3-4.7 19.6 19.6 0 00-4.1-3 15.7 15.7 0 00-4.6-1.6 23 23 0 00-4.5-.5 17 17 0 00-8.3 2 17.3 17.3 0 00-5.8 4.9 20.4 20.4 0 00-3.5 6.9 28.7 28.7 0 00-1.1 7.7 27.6 27.6 0 001.3 8.2 24.9 24.9 0 003.8 7 19.9 19.9 0 006 4.8 17.9 17.9 0 007.8 1.7 24.9 24.9 0 004.6-.5 22 22 0 004.5-1.7 14.9 14.9 0 004-3.1 12.5 12.5 0 002.9-4.6l13.6 8a22.3 22.3 0 01-4.8 7.1 29.3 29.3 0 01-7.3 5.2 44.3 44.3 0 01-8.8 3.3 41.1 41.1 0 01-9.1 1.1 32.6 32.6 0 01-14.3-3.2 35.9 35.9 0 01-11.2-8.4 40.6 40.6 0 01-7.3-12 37.1 37.1 0 01-2.5-13.5zM354.4 72.3V.6H371v71.7zM423.6 72.9a33.1 33.1 0 01-14.5-3.2 35.7 35.7 0 01-11.2-8.2 37.7 37.7 0 01-9.8-25.2 36.3 36.3 0 0110.2-25.1 35.1 35.1 0 0111.3-8 34.3 34.3 0 0114.3-3 33.2 33.2 0 0114.6 3.1 37.2 37.2 0 0111.2 8.3 35 35 0 017.1 11.7 36.6 36.6 0 012.6 13.3 36 36 0 01-2.7 13.7 38.4 38.4 0 01-7.4 11.5 38 38 0 01-11.3 8 33 33 0 01-14.4 3.1zM405 36.5a27.4 27.4 0 001.2 8.1 22.7 22.7 0 003.6 6.9 16.4 16.4 0 005.9 4.8 17.1 17.1 0 008 1.8 16.7 16.7 0 008.3-1.9 17.9 17.9 0 005.9-5 21.2 21.2 0 003.4-6.9 27.3 27.3 0 000-16 20.6 20.6 0 00-3.6-6.9 20.8 20.8 0 00-5.9-4.7 18.9 18.9 0 00-16.3.1 17.3 17.3 0 00-5.8 4.9 20.6 20.6 0 00-3.6 6.9 30.1 30.1 0 00-1.1 7.9zM493.1 31.3v41h-16.6V.6h12.9l33.4 42.1V.6h16.6v71.7h-13.3zM611 57.7v14.6h-50.3V.6h49.4v14.5h-32.9v14h28.3v13.4h-28.3v15.2zM670.2 21.6a7.4 7.4 0 00-2.2-1.5 31 31 0 00-4.5-2.3 45.3 45.3 0 00-5.9-2.2 24.8 24.8 0 00-6.5-.9c-5.9 0-8.9 2-8.9 6a4.4 4.4 0 001 3 9.4 9.4 0 002.8 2.2 33.5 33.5 0 004.7 1.8l6.6 1.8a76.6 76.6 0 019.2 3 25 25 0 017 4.2 15.8 15.8 0 014.5 6 21.5 21.5 0 011.6 8.5 21.3 21.3 0 01-2.3 10.2 18.8 18.8 0 01-6 6.8 26.7 26.7 0 01-8.6 3.7 41.5 41.5 0 01-10 1.2 57.3 57.3 0 01-8.1-.6 54.5 54.5 0 01-8-1.8 63.9 63.9 0 01-7.7-2.8 49.2 49.2 0 01-6.8-3.7l7.3-14.4 2.6 1.9a39.8 39.8 0 005.5 2.8 56.5 56.5 0 007.3 2.5 28.9 28.9 0 008.2 1.1c5.9 0 8.8-1.8 8.8-5.3a4.5 4.5 0 00-1.3-3.4 13.9 13.9 0 00-3.7-2.3 34.1 34.1 0 00-5.5-2l-6.9-2a54 54 0 01-8.5-3.3 19.8 19.8 0 01-6-4.1 14.7 14.7 0 01-3.6-5.3 19.3 19.3 0 01-1.1-7.1 22.6 22.6 0 012.1-10A21.6 21.6 0 01633 6a25.7 25.7 0 018.5-4.5A33.3 33.3 0 01651.6 0a37.1 37.1 0 017.4.7 69.5 69.5 0 016.9 1.8c2.2.8 4.3 1.6 6.2 2.5s3.7 1.9 5.3 2.9z"/><path class="cls-2" d="M62.3 56.5l23.4 37 23.4-37h5.4L88.1 98.1v25.3h-4.8V97.9L57 56.5zM155.5 89.5a36.3 36.3 0 012.1-12.1 34.8 34.8 0 016.2-10.7 31.2 31.2 0 019.9-7.6 29.1 29.1 0 0113.4-3 27.7 27.7 0 0115.3 4.1 25 25 0 019.4 10.5l-3.9 2.3a22.2 22.2 0 00-4.2-5.9 23.9 23.9 0 00-5.2-3.8 20.2 20.2 0 00-5.8-2.1 24.4 24.4 0 00-5.9-.7 23.9 23.9 0 00-11.3 2.6 25.1 25.1 0 00-8.3 6.8 28.3 28.3 0 00-5.2 9.3 34.9 34.9 0 00-1.7 10.5 30.3 30.3 0 002.1 11.3 29 29 0 0014.1 16.1 23.9 23.9 0 0010.6 2.4 27.4 27.4 0 006.2-.7 22.8 22.8 0 006.1-2.4 26.2 26.2 0 005.5-4.1 21 21 0 004.2-5.9l4.2 2a23.9 23.9 0 01-4.7 6.7 28.5 28.5 0 01-6.5 4.9 33.4 33.4 0 01-7.6 3 34.6 34.6 0 01-7.8.9 26.6 26.6 0 01-12.6-3 32.5 32.5 0 01-9.8-7.8 37 37 0 01-8.8-23.6zM258.2 123.8a26.7 26.7 0 01-12.7-2.9 31.2 31.2 0 01-9.9-7.6 33.6 33.6 0 01-6.4-10.8 36.5 36.5 0 01-2.3-12.6 35.5 35.5 0 019-23.6 29.6 29.6 0 0110-7.5 27.2 27.2 0 0112.4-2.8 27.7 27.7 0 0112.8 3 32.3 32.3 0 019.9 7.7 37 37 0 016.3 10.9 35.7 35.7 0 012.3 12.3 35.5 35.5 0 01-9 23.7 32.5 32.5 0 01-10 7.5 28.5 28.5 0 01-12.4 2.7zm-26.5-33.9a32.1 32.1 0 002 11.1 29.2 29.2 0 005.4 9.4 27.4 27.4 0 008.5 6.6 23.7 23.7 0 0010.7 2.4 23.3 23.3 0 0010.9-2.5 27.3 27.3 0 008.3-6.8 32.2 32.2 0 005.3-9.4 33.2 33.2 0 001.9-10.8 31.5 31.5 0 00-2-11 32 32 0 00-5.5-9.5 26.7 26.7 0 00-8.4-6.5 22 22 0 00-10.5-2.5 23.1 23.1 0 00-10.9 2.6 26.2 26.2 0 00-8.4 6.7 33 33 0 00-5.4 9.5 30.6 30.6 0 00-1.9 10.7zM314.4 65.5v57.9h-4.8V56.5h3.6l47 58.9V56.5h4.8v66.9h-4.5zM436.2 60.8h-24.5v62.6h-4.8V60.8h-24.5v-4.3h53.8zM453.6 123.4V56.5h27.8a17.3 17.3 0 017.9 1.8 20 20 0 016.1 4.7 21.4 21.4 0 015.5 14.2 21.1 21.1 0 01-1.1 7.1 19.2 19.2 0 01-3.2 6.2 18 18 0 01-5 4.5 17.7 17.7 0 01-6.4 2.4l16.7 26h-5.6l-16.2-25.3h-21.7v25.3zm4.8-29.7h23.5a12.4 12.4 0 005.8-1.4 16.7 16.7 0 004.6-3.7 16.8 16.8 0 002.8-5.3 18.1 18.1 0 001-6.1A18.8 18.8 0 00495 71a17.7 17.7 0 00-3.3-5.2 15.1 15.1 0 00-4.7-3.6 12.7 12.7 0 00-5.8-1.4h-22.8zM541.8 56.5h4.2l28.2 66.9h-5l-9.4-22.1h-31.9l-9.3 22.1h-5.2zm16.7 40.9l-14.6-35.1L529 97.4zM631.6 60.8h-24.5v62.6h-4.8V60.8h-24.5v-4.3h53.8zM672.6 123.8a27 27 0 01-12.7-2.9 33 33 0 01-16.3-18.4 36.5 36.5 0 01-2.3-12.6 35.5 35.5 0 019-23.6 29.6 29.6 0 0110-7.5 28.8 28.8 0 0125.2.2 31.1 31.1 0 019.9 7.7 37 37 0 016.3 10.9 33.5 33.5 0 012.3 12.3 35.5 35.5 0 01-9 23.7 33.2 33.2 0 01-9.9 7.5 29.3 29.3 0 01-12.5 2.7zm-26.5-33.9a32.1 32.1 0 002 11.1 31.2 31.2 0 005.4 9.4 27.4 27.4 0 008.5 6.6 23.7 23.7 0 0010.7 2.4 23 23 0 0010.9-2.5 27.3 27.3 0 008.3-6.8 30.1 30.1 0 005.3-9.4 30.7 30.7 0 001.9-10.8 31.5 31.5 0 00-2-11 29.9 29.9 0 00-5.5-9.5 26.3 26.3 0 00-8.3-6.5 22.1 22.1 0 00-10.6-2.5 23.4 23.4 0 00-10.9 2.6 26.2 26.2 0 00-8.4 6.7 32.1 32.1 0 00-7.3 20.2zM762.9 67.6c-4.3-4.8-10.5-7.3-18.4-7.3s-11.3 1.3-14.3 3.8a12.4 12.4 0 00-4.4 10 10.7 10.7 0 001.1 5.3 10 10 0 003.5 3.6 21.5 21.5 0 006.1 2.6l8.9 2.2a71.8 71.8 0 019.7 2.5 28.9 28.9 0 017.5 3.4 13.8 13.8 0 016.3 12.5 17.3 17.3 0 01-1.7 7.8 16.1 16.1 0 01-4.9 5.5 23 23 0 01-7.6 3.3 36.4 36.4 0 01-9.7 1.1c-10.4 0-19.3-3.3-26.5-9.9l2.6-3.9a30.3 30.3 0 0010.3 7 35.7 35.7 0 0013.8 2.6c5.8 0 10.4-1.1 13.7-3.2s4.9-5.4 4.9-9.7a10.8 10.8 0 00-1.3-5.6 11.5 11.5 0 00-3.9-4 26.3 26.3 0 00-6.5-2.9c-2.7-.9-5.8-1.6-9.3-2.4s-6.7-1.6-9.4-2.4a22.1 22.1 0 01-6.9-3.2 11.8 11.8 0 01-4.2-4.7 14 14 0 01-1.4-6.8 18.9 18.9 0 011.7-8.1 17.1 17.1 0 014.9-5.8 20.6 20.6 0 017.4-3.7 36 36 0 019.6-1.2 32.1 32.1 0 0111.6 1.9 27.3 27.3 0 019.2 5.9z"/></g></g></svg>