<svg xmlns="http://www.w3.org/2000/svg" width="218.8417" height="38.2193" viewBox="0 0 218.8417 38.2193"><defs><style>.cls-1,.cls-2{fill:#fff;}.cls-1{fill-rule:evenodd;}.cls-3{fill:#373737;}</style></defs><title>logo_icetex</title><g id="Layer_2" data-name="Layer 2"><g id="Layer_1-2" data-name="Layer 1"><path class="cls-1" d="M182.0126,28.5114V21.89h6.4786a29.05,29.05,0,0,1,7.69-8.1328,24.5428,24.5428,0,0,1-3.42-6.1952H182.0126V.0271h18.07c-.4249,5.1179.8709,7.5445,2.5865,9.41,3.6281-2.1862,6.0364-5.843,8.38-9.4373h7.7922c-3.0951,5.5137-6.7163,10.7163-11.934,13.9q.1287.1914.2517.3933c4.0166,6.6177,3.4013,14.8541.8987,23.9263h-7.8632c2.6954-6.5337,3.6793-14.4663-.2764-19.6606a26.4985,26.4985,0,0,0-8.3955,10.065h-5.1446l.0078-.1123Zm0-10.559h1.1083V11.1h-1.1083ZM62.6492.0271h7.32V28.6607h-7.32V.0271Zm119.3634,0V7.5623H168.551a1.9841,1.9841,0,0,0-.707,1.5329V11.1h14.1686v6.8521H167.844V19.959a1.8735,1.8735,0,0,0,1.7973,1.9313h12.3713v6.6211H169.529c-4.8189,0-8.7617-4.9274-8.7617-10.95V7.5623H148.3345v20.883h-7.5351V7.5623H109.7977a1.5121,1.5121,0,0,0-1.5071,1.507v2.0924h15.0022v6.8455H108.2906v3.3336h20.2373v7.32H80.9488a8.8528,8.8528,0,0,1-8.8268-8.8269V8.854A8.8528,8.8528,0,0,1,80.9488.0271h18.3v7.32H81.5947a2.3245,2.3245,0,0,0-2.3682,2.2637v9.4664a2.3245,2.3245,0,0,0,2.3682,2.2637h19.4838a8.2631,8.2631,0,0,1-.1077-1.3319V8.6789A8.8794,8.8794,0,0,1,110.0129.0271Z"/><path class="cls-2" d="M192.2738,36.1191v-.6258a1.114,1.114,0,0,0,.3674-.2126,2.0081,2.0081,0,0,0,.521-.8284,3.2658,3.2658,0,0,0,.2239-1.1877,1.6806,1.6806,0,0,0-.2525-1.0035.751.751,0,0,0-.6229-.34.8536.8536,0,0,0-.2369.0338v-.6255a1.7735,1.7735,0,0,1,.2585-.0184,1.3051,1.3051,0,0,1,1.0549.5077,2.2086,2.2086,0,0,1,.416,1.4416,3.9054,3.9054,0,0,1-.2841,1.5305,2.3525,2.3525,0,0,1-.7348,1.0111A1.6292,1.6292,0,0,1,192.2738,36.1191Zm0-4.79v.6255a1.11,1.11,0,0,0-.3917.2142,1.8435,1.8435,0,0,0-.5124.8194,3.52,3.52,0,0,0-.208,1.216,1.6271,1.6271,0,0,0,.2525.9916.7608.7608,0,0,0,.63.3341.7469.7469,0,0,0,.23-.0368v.6258a1.4538,1.4538,0,0,1-.2382.02,1.3545,1.3545,0,0,1-1.0764-.4974,2.0312,2.0312,0,0,1-.4248-1.36,3.8852,3.8852,0,0,1,.5425-2.11,1.6845,1.6845,0,0,1,1.1969-.8427Zm-8.0034,4.713v-.5648a1.1359,1.1359,0,0,0,.2691-.1389,1.3821,1.3821,0,0,0,.4521-.5522,3.9363,3.9363,0,0,0,.28-1.0913,2.5618,2.5618,0,0,1-.7822.1738q-.1171.0125-.2189.0267V33.31l.0381-.0021a7.1762,7.1762,0,0,0,.72-.0654,1.1953,1.1953,0,0,0,.3344-.1038,2.4663,2.4663,0,0,0,.0761-.539.5856.5856,0,0,0-.2038-.4676.8813.8813,0,0,0-.5913-.1767,1.1169,1.1169,0,0,0-.3739.0593v-.6619a1.9614,1.9614,0,0,1,.4126-.0417,1.4193,1.4193,0,0,1,1,.3415,1.122,1.122,0,0,1,.37.86,5.1785,5.1785,0,0,1-.0847.8566l-.2008,1.149a5.3441,5.3441,0,0,0-.0976.8863,3.7238,3.7238,0,0,0,.0717.631h-.6257a3.1742,3.1742,0,0,1-.0761-.5745,2.4187,2.4187,0,0,1-.6473.527q-.0612.03-.1227.0549Zm2.2282-.0074.765-4.6185h.5639l-.13.8046a2.9187,2.9187,0,0,1,.7191-.7112,1.2007,1.2007,0,0,1,.6272-.1989.8784.8784,0,0,1,.6873.2969,1.2189,1.2189,0,0,1,.2628.8388,5.4588,5.4588,0,0,1-.0934.7914l-.4621,2.7969h-.6272l.488-2.9276a4.3652,4.3652,0,0,0,.0717-.634.5238.5238,0,0,0-.132-.3771.4812.4812,0,0,0-.36-.1365,1.1109,1.1109,0,0,0-.8468.43,3.0832,3.0832,0,0,0-.5526,1.4964l-.3574,2.1483ZM184.27,31.3526v.6619a1.0462,1.0462,0,0,0-.6351.7839l-.63-.07a1.7132,1.7132,0,0,1,1.2651-1.3761Zm0,1.9572v.5858a2.2566,2.2566,0,0,0-.5547.1291.7268.7268,0,0,0-.3287.2925.867.867,0,0,0-.1176.4513.7827.7827,0,0,0,.1894.5568.6546.6546,0,0,0,.5053.2048.9224.9224,0,0,0,.3063-.0526v.5648a1.3247,1.3247,0,0,1-.4916.0965,1.0369,1.0369,0,0,1-.8094-.3607,1.4276,1.4276,0,0,1-.3215-.9829,1.5555,1.5555,0,0,1,.1852-.7735,1.245,1.245,0,0,1,.5195-.5077,2.2949,2.2949,0,0,1,.9178-.2042Zm-5.2679,2.8142V35.46a.977.977,0,0,0,.32-.1928,2.01,2.01,0,0,0,.4722-.8432,3.6813,3.6813,0,0,0,.2124-1.207,1.6494,1.6494,0,0,0-.2253-.9516.6712.6712,0,0,0-.5655-.3192.611.611,0,0,0-.2138.0393v-.5773a.9478.9478,0,0,1,.4118-.0974,1.0378,1.0378,0,0,1,.8583.4721,2.3662,2.3662,0,0,1,.3488,1.4118,4.1974,4.1974,0,0,1-.2813,1.5678,2.5223,2.5223,0,0,1-.6947,1.0392,1.4063,1.4063,0,0,1-.6429.3222Zm2.8834-5.5731.1477-.8924h.6215l-.1464.8924Zm-.9086,5.484.7665-4.6185h.6214l-.765,4.6185Zm-1.9748-4.6266v.5773a.9962.9962,0,0,0-.3746.2695,2.5068,2.5068,0,0,0-.4838,1.0185,3.4186,3.4186,0,0,0-.142.8655l-.0042.1647a1.4611,1.4611,0,0,0,.2282.8893.6882.6882,0,0,0,.5655.3029.6491.6491,0,0,0,.2109-.0359v.6639a.9762.9762,0,0,1-.1679.0148q-.7536,0-1.0649-.9784l-.1464.8745h-.5468l1.0549-6.3764h.627l-.3788,2.2789a2.1954,2.1954,0,0,1,.5454-.4884c.0257-.0148.0515-.0283.0775-.0407Zm-9.8871,4.7108v-.626a1.1125,1.1125,0,0,0,.3674-.2124,2.0081,2.0081,0,0,0,.5209-.8284,3.2681,3.2681,0,0,0,.224-1.1877,1.6805,1.6805,0,0,0-.2527-1.0035.751.751,0,0,0-.6228-.34.8518.8518,0,0,0-.2368.0338v-.6255a1.7687,1.7687,0,0,1,.2583-.0184,1.3048,1.3048,0,0,1,1.0549.5077,2.208,2.208,0,0,1,.4162,1.4416,3.9036,3.9036,0,0,1-.2843,1.5305,2.3515,2.3515,0,0,1-.7347,1.0111,1.6288,1.6288,0,0,1-.71.3173Zm2.07-.0842.7651-4.6185h.6228l-.1263.76a2.6692,2.6692,0,0,1,.6343-.6888,1.057,1.057,0,0,1,.5813-.1767.7854.7854,0,0,1,.567.2227,1.1346,1.1346,0,0,1,.3071.6428,2.2625,2.2625,0,0,1,.5883-.65,1.1378,1.1378,0,0,1,.6516-.2153.87.87,0,0,1,.676.2657,1.1083,1.1083,0,0,1,.2411.7706,4.7752,4.7752,0,0,1-.0832.7125l-.4924,2.9752h-.6227L176,32.9811a3.7835,3.7835,0,0,0,.0632-.539.5086.5086,0,0,0-.1178-.3591.418.418,0,0,0-.3156-.1233.9683.9683,0,0,0-.547.1974,1.3978,1.3978,0,0,0-.4564.5434,4.229,4.229,0,0,0-.2955,1.0941l-.37,2.24h-.6272l.518-3.1191a3.1247,3.1247,0,0,0,.0546-.4558.5377.5377,0,0,0-.1162-.3652.3621.3621,0,0,0-.2885-.1351,1.0489,1.0489,0,0,0-.7879.4365,3.0423,3.0423,0,0,0-.54,1.4548l-.3659,2.1839Zm-2.07-4.7056v.6255a1.1106,1.1106,0,0,0-.3918.2142,1.8435,1.8435,0,0,0-.5124.8194,3.52,3.52,0,0,0-.2081,1.216,1.6271,1.6271,0,0,0,.2526.9916.7607.7607,0,0,0,.63.3341.7434.7434,0,0,0,.23-.037v.626a1.4577,1.4577,0,0,1-.2383.02,1.3543,1.3543,0,0,1-1.0763-.4974,2.03,2.03,0,0,1-.4249-1.36,3.8835,3.8835,0,0,1,.5426-2.11,1.6839,1.6839,0,0,1,1.1969-.8427Zm-5.4955,4.79v-.6258a1.114,1.114,0,0,0,.3674-.2126,2.0081,2.0081,0,0,0,.521-.8284,3.2658,3.2658,0,0,0,.2239-1.1877,1.6806,1.6806,0,0,0-.2525-1.0035.751.751,0,0,0-.623-.34.8518.8518,0,0,0-.2368.0338v-.6255a1.7735,1.7735,0,0,1,.2585-.0184,1.3051,1.3051,0,0,1,1.0549.5077,2.2086,2.2086,0,0,1,.4161,1.4416,3.9054,3.9054,0,0,1-.2842,1.5305,2.3525,2.3525,0,0,1-.7348,1.0111,1.6287,1.6287,0,0,1-.71.3173Zm2.0281-.0842,1.0548-6.3764h.6272l-1.0563,6.3764ZM163.62,31.3293v.6255a1.11,1.11,0,0,0-.3917.2142,1.8435,1.8435,0,0,0-.5124.8194,3.52,3.52,0,0,0-.208,1.216,1.6271,1.6271,0,0,0,.2525.9916.7608.7608,0,0,0,.63.3341.7469.7469,0,0,0,.23-.0368v.6258a1.4547,1.4547,0,0,1-.2382.02,1.3541,1.3541,0,0,1-1.0763-.4974,2.0307,2.0307,0,0,1-.4249-1.36,3.8843,3.8843,0,0,1,.5425-2.11,1.6845,1.6845,0,0,1,1.1969-.8427Zm-12.9541,4.79v-.6258a1.1146,1.1146,0,0,0,.3673-.2126,2.0081,2.0081,0,0,0,.521-.8284,3.266,3.266,0,0,0,.224-1.1877,1.6806,1.6806,0,0,0-.2526-1.0035.7512.7512,0,0,0-.623-.34.8506.8506,0,0,0-.2367.0338v-.6255a1.7711,1.7711,0,0,1,.2584-.0184,1.3048,1.3048,0,0,1,1.0548.5077,2.208,2.208,0,0,1,.4161,1.4416,3.9054,3.9054,0,0,1-.2841,1.5305,2.3517,2.3517,0,0,1-.7348,1.0111,1.6293,1.6293,0,0,1-.71.3173Zm2.1126-1.6623.6258-.049a1.24,1.24,0,0,0,.24.8447.8377.8377,0,0,0,.6644.2776.8792.8792,0,0,0,.6057-.1974.65.65,0,0,0,.2224-.5063.6314.6314,0,0,0-.1393-.4009,2.1556,2.1556,0,0,0-.617-.4349,4.241,4.241,0,0,1-.722-.4543,1.0847,1.0847,0,0,1-.2712-.3875,1.2907,1.2907,0,0,1-.0962-.5106,1.3154,1.3154,0,0,1,.3618-.9532,1.2624,1.2624,0,0,1,.95-.3741,1.38,1.38,0,0,1,1.0306.386,1.5211,1.5211,0,0,1,.3946,1.0764l-.6143.0519a.9577.9577,0,0,0-.2411-.67.8181.8181,0,0,0-.6157-.2346.6935.6935,0,0,0-.4922.1752.5419.5419,0,0,0-.19.4069.5475.5475,0,0,0,.1133.3444,2.0272,2.0272,0,0,0,.577.3948,3.5354,3.5354,0,0,1,.9041.6177,1.3514,1.3514,0,0,1,.2943.8789,1.3868,1.3868,0,0,1-.3932.9872,1.6562,1.6562,0,0,1-2.193-.0045,1.632,1.632,0,0,1-.399-1.1787v-.0861Zm7.9841-.1055.6257.0832a2.749,2.749,0,0,1-.6717,1.2856,1.38,1.38,0,0,1-.976.4187,1.177,1.177,0,0,1-.96-.4736,2.1528,2.1528,0,0,1-.3819-1.3748,4.41,4.41,0,0,1,.28-1.6047,2.36,2.36,0,0,1,.7061-1.0481,1.5329,1.5329,0,0,1,.9487-.3267,1.1664,1.1664,0,0,1,.9214.41,1.6279,1.6279,0,0,1,.3531,1.1223l-.6143.052A1.0494,1.0494,0,0,0,160.79,32.2a.6354.6354,0,0,0-.5023-.2405.8986.8986,0,0,0-.6.2286,1.8468,1.8468,0,0,0-.462.8433,4.4754,4.4754,0,0,0-.1952,1.3628,1.4153,1.4153,0,0,0,.2124.8462.6158.6158,0,0,0,.5066.2895.8051.8051,0,0,0,.58-.291A2.0066,2.0066,0,0,0,160.7625,34.3513Zm-10.0967-3.022v.6255a1.1109,1.1109,0,0,0-.3919.2142,1.8433,1.8433,0,0,0-.5122.8194,3.5178,3.5178,0,0,0-.2082,1.216,1.6271,1.6271,0,0,0,.2526.9916.7607.7607,0,0,0,.63.3341.748.748,0,0,0,.23-.0368v.6258a1.4568,1.4568,0,0,1-.2383.02,1.3546,1.3546,0,0,1-1.0764-.4974,2.0312,2.0312,0,0,1-.4248-1.36,3.8843,3.8843,0,0,1,.5425-2.11,1.6845,1.6845,0,0,1,1.197-.8427Zm-7.405,4.7715v-.6751a1.22,1.22,0,0,0,.3037-.1955,1.7259,1.7259,0,0,0,.4808-.766l.61.0787a2.21,2.21,0,0,1-.7019,1.1743,1.5446,1.5446,0,0,1-.6925.3836Zm0-2.18v-.6h1.0284v-.1619a1.5216,1.5216,0,0,0-.2354-.9263.7265.7265,0,0,0-.6013-.3088.8568.8568,0,0,0-.1917.0215v-.624a1.49,1.49,0,0,1,.1787-.0107,1.27,1.27,0,0,1,1.0362.5,2.2025,2.2025,0,0,1,.402,1.4133,5.5374,5.5374,0,0,1-.0459.6964Zm3.9375,2.114,1.0549-6.3764h.6271l-1.0561,6.3764Zm-3.9375-4.7133v.624a1.0672,1.0672,0,0,0-.5331.3273,2.2446,2.2446,0,0,0-.4952,1.0482h1.0283v.6h-1.1287c-.0086.0934-.013.1751-.013.2478a1.7094,1.7094,0,0,0,.24.99.6981.6981,0,0,0,.5769.337.81.81,0,0,0,.325-.07v.6751a1.4176,1.4176,0,0,1-.3292.038,1.2548,1.2548,0,0,1-.7277-.2242,1.51,1.51,0,0,1-.521-.6695,2.6561,2.6561,0,0,1-.1938-1.063,3.901,3.901,0,0,1,.2957-1.5188,2.4408,2.4408,0,0,1,.7262-1.0273,1.5314,1.5314,0,0,1,.75-.3144Zm-4.0738,4.72v-.5756a1.1928,1.1928,0,0,0,.5454-.515,3.4258,3.4258,0,0,0,.4578-1.826,1.3856,1.3856,0,0,0-.2353-.8611.69.69,0,0,0-.56-.3043.67.67,0,0,0-.2082.0331v-.6664a.9973.9973,0,0,1,.1752-.0155,1.1145,1.1145,0,0,1,1.0217.8314l.412-2.4838h.6215l-1.0549,6.3764h-.5755l.1091-.67A1.93,1.93,0,0,1,139.187,36.0417Zm0-4.7153v.6664a.9359.9359,0,0,0-.3846.2578,2.098,2.098,0,0,0-.445.8745,3.6008,3.6008,0,0,0-.1692.9739l-.0043.1871a1.6,1.6,0,0,0,.2569.94.6076.6076,0,0,0,.5209.2821.63.63,0,0,0,.2253-.0418v.5756a.9329.9329,0,0,1-.409.0971,1.0413,1.0413,0,0,1-.8582-.4736,2.37,2.37,0,0,1-.353-1.4223,4.1518,4.1518,0,0,1,.2812-1.5543,2.4926,2.4926,0,0,1,.6947-1.0421,1.4275,1.4275,0,0,1,.6443-.32ZM133.39,36.1191v-.626a1.1115,1.1115,0,0,0,.3674-.2124,2.0081,2.0081,0,0,0,.5209-.8284,3.2681,3.2681,0,0,0,.224-1.1877,1.6805,1.6805,0,0,0-.2527-1.0035.751.751,0,0,0-.6229-.34.8511.8511,0,0,0-.2367.0338v-.6255a1.77,1.77,0,0,1,.2583-.0184,1.3048,1.3048,0,0,1,1.0549.5077A2.208,2.208,0,0,1,135.12,33.26a3.9036,3.9036,0,0,1-.2843,1.5305,2.3515,2.3515,0,0,1-.7347,1.0111A1.6283,1.6283,0,0,1,133.39,36.1191Zm0-4.79v.6255a1.1106,1.1106,0,0,0-.3918.2142,1.8435,1.8435,0,0,0-.5124.8194,3.52,3.52,0,0,0-.2081,1.216,1.6278,1.6278,0,0,0,.2525.9916.761.761,0,0,0,.63.3341.7434.7434,0,0,0,.23-.037v.626a1.4577,1.4577,0,0,1-.2383.02,1.3543,1.3543,0,0,1-1.0763-.4974,2.03,2.03,0,0,1-.425-1.36,3.8844,3.8844,0,0,1,.5426-2.11,1.6843,1.6843,0,0,1,1.197-.8427Zm-9.763,4.7715v-.6751a1.2178,1.2178,0,0,0,.3036-.1955,1.724,1.724,0,0,0,.4807-.766l.61.0787a2.2107,2.2107,0,0,1-.702,1.1743,1.5448,1.5448,0,0,1-.6924.3836Zm0-2.18v-.6h1.0283v-.1619a1.5223,1.5223,0,0,0-.2353-.9263.7269.7269,0,0,0-.6014-.3088.8566.8566,0,0,0-.1916.0215v-.624a1.4885,1.4885,0,0,1,.1787-.0107,1.27,1.27,0,0,1,1.0361.5,2.2019,2.2019,0,0,1,.402,1.4133,5.5374,5.5374,0,0,1-.0459.6964Zm2.0244,2.114.7649-4.6185h.564l-.1306.8046a2.92,2.92,0,0,1,.7191-.7112,1.2015,1.2015,0,0,1,.6272-.1989.8783.8783,0,0,1,.6874.2969,1.2189,1.2189,0,0,1,.2627.8388,5.44,5.44,0,0,1-.0933.7914l-.4622,2.7969h-.6271l.4879-2.9276a4.3688,4.3688,0,0,0,.0718-.634.5234.5234,0,0,0-.132-.3771.481.481,0,0,0-.36-.1365,1.1107,1.1107,0,0,0-.8468.43,3.0852,3.0852,0,0,0-.5526,1.4964l-.3574,2.1483Zm5.3863-.64-.109.6443a1.3882,1.3882,0,0,1-.4334.0742.7787.7787,0,0,1-.5541-.1915.6737.6737,0,0,1-.2038-.5136,5.8631,5.8631,0,0,1,.0933-.7008l.4406-2.6826h-.4908l.1005-.6086h.4922l.1895-1.1357.7147-.5434-.2785,1.6791h.61l-.1.6086h-.61l-.4249,2.5535c-.0531.3266-.0805.52-.0805.5775a.3139.3139,0,0,0,.0676.2226.2775.2775,0,0,0,.2067.0683A1.1984,1.1984,0,0,0,131.038,35.395Zm-7.4107-4.0734v.624a1.0667,1.0667,0,0,0-.5332.3273,2.2426,2.2426,0,0,0-.4951,1.0482h1.0283v.6h-1.1288c-.0086.0934-.0129.1751-.0129.2478a1.7094,1.7094,0,0,0,.24.99.6982.6982,0,0,0,.577.337.8082.8082,0,0,0,.325-.07v.6751a1.4187,1.4187,0,0,1-.3294.038,1.2547,1.2547,0,0,1-.7276-.2242,1.512,1.512,0,0,1-.5211-.6695,2.6562,2.6562,0,0,1-.1936-1.063,3.9009,3.9009,0,0,1,.2956-1.5188,2.4417,2.4417,0,0,1,.7262-1.0273,1.5321,1.5321,0,0,1,.75-.3144Zm-5.6992,4.7207v-.5648a1.1359,1.1359,0,0,0,.2691-.1389,1.3821,1.3821,0,0,0,.4521-.5522,3.9363,3.9363,0,0,0,.28-1.0913,2.561,2.561,0,0,1-.7822.1738q-.1172.0125-.2189.0267V33.31l.038-.0021a7.17,7.17,0,0,0,.72-.0654,1.195,1.195,0,0,0,.3345-.1038,2.4663,2.4663,0,0,0,.0761-.539.5856.5856,0,0,0-.2038-.4676.8814.8814,0,0,0-.5913-.1767,1.1165,1.1165,0,0,0-.3739.0593v-.6619a1.9624,1.9624,0,0,1,.4127-.0417,1.4192,1.4192,0,0,1,1,.3415,1.122,1.122,0,0,1,.37.86,5.1785,5.1785,0,0,1-.0847.8566l-.2008,1.149a5.3441,5.3441,0,0,0-.0976.8863,3.7323,3.7323,0,0,0,.0716.631h-.6255a3.1552,3.1552,0,0,1-.0762-.5745,2.4187,2.4187,0,0,1-.6473.527q-.0612.03-.1227.0549Zm2.178-.0074,1.0548-6.3764h.6272l-1.0563,6.3764Zm-2.178-4.6823v.6619a1.0462,1.0462,0,0,0-.6351.7839l-.63-.07a1.7135,1.7135,0,0,1,1.2651-1.3761Zm0,1.9572v.5858a2.2555,2.2555,0,0,0-.5546.1291.7258.7258,0,0,0-.3287.2925.8652.8652,0,0,0-.1177.4513.7827.7827,0,0,0,.1894.5568.6546.6546,0,0,0,.5053.2048.9224.9224,0,0,0,.3063-.0526v.5648a1.3247,1.3247,0,0,1-.4916.0965,1.0368,1.0368,0,0,1-.8094-.3607,1.4271,1.4271,0,0,1-.3215-.9829,1.5555,1.5555,0,0,1,.1852-.7735,1.245,1.245,0,0,1,.52-.5077,2.2945,2.2945,0,0,1,.9178-.2042Zm-9.2182,2.791v-.6751a1.2156,1.2156,0,0,0,.3035-.1955,1.7232,1.7232,0,0,0,.4808-.766l.61.0787a2.2107,2.2107,0,0,1-.702,1.1743,1.5453,1.5453,0,0,1-.6924.3836Zm0-2.18v-.6h1.0283v-.1619a1.5223,1.5223,0,0,0-.2353-.9263.7269.7269,0,0,0-.6015-.3088.8544.8544,0,0,0-.1915.0215v-.624a1.4885,1.4885,0,0,1,.1787-.0107,1.27,1.27,0,0,1,1.0361.5,2.2019,2.2019,0,0,1,.4019,1.4133,5.5559,5.5559,0,0,1-.0458.6964Zm1.9742,2.114,1.0548-6.3764h.6271L111.31,36.0349Zm5.0416-.64-.1089.6443a1.3882,1.3882,0,0,1-.4334.0742.7786.7786,0,0,1-.554-.1915.6734.6734,0,0,1-.2039-.5136,5.8631,5.8631,0,0,1,.0933-.7008l.4406-2.6826h-.4909l.1006-.6086h.4922l.1894-1.1357.7148-.5434-.2784,1.6791h.61l-.1.6086h-.61l-.4249,2.5535c-.053.3266-.08.52-.08.5775a.3139.3139,0,0,0,.0676.2226.2771.2771,0,0,0,.2065.0683A1.1971,1.1971,0,0,0,115.7257,35.395ZM108.71,31.3216v.624a1.0663,1.0663,0,0,0-.5332.3273,2.2426,2.2426,0,0,0-.4951,1.0482H108.71v.6H107.581c-.0086.0934-.0128.1751-.0128.2478a1.7094,1.7094,0,0,0,.24.99.698.698,0,0,0,.577.337.8085.8085,0,0,0,.325-.07v.6751a1.4187,1.4187,0,0,1-.3294.038,1.2552,1.2552,0,0,1-.7277-.2242,1.5126,1.5126,0,0,1-.521-.6695,2.6561,2.6561,0,0,1-.1937-1.063,3.901,3.901,0,0,1,.2957-1.5188,2.4417,2.4417,0,0,1,.7262-1.0273,1.5318,1.5318,0,0,1,.75-.3144Zm-9.8168,4.7792v-.6751a1.2174,1.2174,0,0,0,.3035-.1955,1.7232,1.7232,0,0,0,.4808-.766l.61.0787a2.21,2.21,0,0,1-.702,1.1743,1.5453,1.5453,0,0,1-.6924.3836Zm0-2.18v-.6h1.0283v-.1619a1.5216,1.5216,0,0,0-.2354-.9263.7264.7264,0,0,0-.6013-.3088.8566.8566,0,0,0-.1916.0215v-.624a1.4885,1.4885,0,0,1,.1787-.0107,1.27,1.27,0,0,1,1.0361.5,2.2019,2.2019,0,0,1,.402,1.4133,5.5374,5.5374,0,0,1-.0459.6964Zm2.0244,2.114.7649-4.6185h.564l-.1306.8046a2.92,2.92,0,0,1,.7191-.7112,1.2015,1.2015,0,0,1,.6272-.1989.8784.8784,0,0,1,.6874.2969,1.2189,1.2189,0,0,1,.2627.8388,5.44,5.44,0,0,1-.0933.7914l-.4621,2.7969H103.23l.488-2.9276a4.3652,4.3652,0,0,0,.0717-.634.5238.5238,0,0,0-.132-.3771.4814.4814,0,0,0-.36-.1365,1.111,1.111,0,0,0-.8468.43,3.0843,3.0843,0,0,0-.5525,1.4964l-.3574,2.1483Zm-2.0244-4.7133v.624a1.0652,1.0652,0,0,0-.5331.3273,2.2417,2.2417,0,0,0-.4952,1.0482h1.0283v.6H97.7643c-.0087.0934-.0129.1751-.0129.2478a1.7094,1.7094,0,0,0,.24.99.698.698,0,0,0,.577.337.8109.8109,0,0,0,.325-.07v.6751a1.4187,1.4187,0,0,1-.3294.038,1.2552,1.2552,0,0,1-.7277-.2242,1.5126,1.5126,0,0,1-.521-.6695,2.6562,2.6562,0,0,1-.1936-1.063,3.8991,3.8991,0,0,1,.2956-1.5188,2.4408,2.4408,0,0,1,.7262-1.0273,1.5318,1.5318,0,0,1,.75-.3144Zm-9.4759,4.7975v-.626a1.1125,1.1125,0,0,0,.3674-.2124,2.0081,2.0081,0,0,0,.5209-.8284,3.2678,3.2678,0,0,0,.2238-1.1877,1.6806,1.6806,0,0,0-.2525-1.0035.751.751,0,0,0-.6229-.34.8511.8511,0,0,0-.2367.0338v-.6255a1.77,1.77,0,0,1,.2583-.0184,1.3051,1.3051,0,0,1,1.0549.5077,2.208,2.208,0,0,1,.4162,1.4416,3.9054,3.9054,0,0,1-.2843,1.5305,2.3509,2.3509,0,0,1-.7348,1.0111,1.6275,1.6275,0,0,1-.71.3173ZM91.53,34.4568l.6258-.049a1.24,1.24,0,0,0,.24.8447.838.838,0,0,0,.6645.2776.8791.8791,0,0,0,.6056-.1974.65.65,0,0,0,.2225-.5063.6324.6324,0,0,0-.1392-.4009,2.16,2.16,0,0,0-.6171-.4349,4.2346,4.2346,0,0,1-.7219-.4543,1.0824,1.0824,0,0,1-.2713-.3875,1.2907,1.2907,0,0,1-.0962-.5106,1.3157,1.3157,0,0,1,.3617-.9532,1.2624,1.2624,0,0,1,.95-.3741,1.3792,1.3792,0,0,1,1.0306.386,1.5216,1.5216,0,0,1,.3947,1.0764l-.6143.0519a.9577.9577,0,0,0-.2411-.67.8179.8179,0,0,0-.6157-.2346.6937.6937,0,0,0-.4923.1752.5519.5519,0,0,0-.0761.7513,2.0256,2.0256,0,0,0,.577.3948,3.5384,3.5384,0,0,1,.9042.6177,1.3524,1.3524,0,0,1,.2942.8789,1.3869,1.3869,0,0,1-.3933.9872,1.6562,1.6562,0,0,1-2.193-.0045,1.6324,1.6324,0,0,1-.3989-1.1787Zm-2.1126-3.1275v.6255a1.11,1.11,0,0,0-.3919.2142,1.8434,1.8434,0,0,0-.5123.8194,3.5177,3.5177,0,0,0-.2081,1.216,1.6278,1.6278,0,0,0,.2525.9916.7608.7608,0,0,0,.63.3341.7434.7434,0,0,0,.23-.037v.626a1.4577,1.4577,0,0,1-.2383.02,1.3546,1.3546,0,0,1-1.0764-.4974,2.0307,2.0307,0,0,1-.4249-1.36,3.8844,3.8844,0,0,1,.5426-2.11,1.6843,1.6843,0,0,1,1.197-.8427Zm-9.2794,4.7056v-.281l.72-4.3375h.6214l-.765,4.6185Zm0-4.3357.0467-.2828h-.0467v.2828ZM81,30.5509l.1478-.8924h.6215l-.1465.8924Zm.6774,5.484.7649-4.6185h.6229l-.1262.76a2.6639,2.6639,0,0,1,.6343-.6888,1.0565,1.0565,0,0,1,.5813-.1767.7851.7851,0,0,1,.5669.2227,1.1347,1.1347,0,0,1,.3072.6428,2.2611,2.2611,0,0,1,.5883-.65,1.1377,1.1377,0,0,1,.6515-.2153.87.87,0,0,1,.6761.2657,1.1082,1.1082,0,0,1,.241.7706,4.7715,4.7715,0,0,1-.0831.7125L86.61,36.0349H85.987l.5052-3.0538a3.7794,3.7794,0,0,0,.0631-.539.509.509,0,0,0-.1176-.3591.4182.4182,0,0,0-.3158-.1233.9679.9679,0,0,0-.5468.1974,1.3944,1.3944,0,0,0-.4564.5434,4.2357,4.2357,0,0,0-.2957,1.0941l-.37,2.24h-.6273l.5182-3.1191a3.1247,3.1247,0,0,0,.0546-.4558.5367.5367,0,0,0-.1164-.3652.3617.3617,0,0,0-.2885-.1351,1.0492,1.0492,0,0,0-.7878.4365,3.0434,3.0434,0,0,0-.54,1.4548L82.3,36.0349Zm-1.5393-4.6185v.2828l-.0537.3258h-.61l-.4249,2.5535c-.0531.3266-.08.52-.08.5775a.3139.3139,0,0,0,.0675.2226.2775.2775,0,0,0,.2067.0683,1.198,1.198,0,0,0,.37-.0519l-.109.6443a1.3882,1.3882,0,0,1-.4334.0742.7789.7789,0,0,1-.5541-.1915.64.64,0,0,1-.0947-.1127V34.6114l.4248-2.5864h-.4248v-.2315l.1091-.3119c-.0376-.0235-.0738-.0446-.1091-.0633v.2067l.0345-.2086h.4922l.1895-1.1357.7147-.5434-.2785,1.6791Zm0,4.3375-.0466.281h.0466Zm-1.7157-4.3356v.2067l-.066.4h.066v-.2315l-.1464.4186a.5083.5083,0,0,0-.3459-.1485.922.922,0,0,0-.6874.4677,4.0711,4.0711,0,0,0-.5353,1.6508l-.3114,1.8528h-.5928l.7649-4.6185h.5512l-.1551.9426q.5511-1.0466,1.1051-1.0481a.7759.7759,0,0,1,.3531.1074Zm0,3.1931-.0157.0962a5.85,5.85,0,0,0-.0934.7008.7147.7147,0,0,0,.1091.4009V34.6114Zm-4.6435,1.4894v-.6751a1.2169,1.2169,0,0,0,.3034-.1955,1.7244,1.7244,0,0,0,.481-.766l.61.0787a2.21,2.21,0,0,1-.7019,1.1743,1.5453,1.5453,0,0,1-.6924.3836Zm0-2.18v-.6h1.0283v-.1619a1.5209,1.5209,0,0,0-.2355-.9263.7264.7264,0,0,0-.6012-.3088.861.861,0,0,0-.1916.0213v-.6238a1.4869,1.4869,0,0,1,.1786-.0107,1.27,1.27,0,0,1,1.0362.5,2.2025,2.2025,0,0,1,.402,1.4133,5.5192,5.5192,0,0,1-.046.6964Zm0-2.5993v.6238a1.0675,1.0675,0,0,0-.5332.3275,2.2426,2.2426,0,0,0-.4952,1.0482h1.0284v.6H72.65c-.0086.0934-.013.1751-.013.2478a1.71,1.71,0,0,0,.24.99.6982.6982,0,0,0,.577.337.8094.8094,0,0,0,.3251-.07v.6751a1.4127,1.4127,0,0,1-.3294.038,1.2555,1.2555,0,0,1-.7278-.2242,1.5115,1.5115,0,0,1-.5208-.6695,2.338,2.338,0,0,1-.1709-.659v-.8474a3.8092,3.8092,0,0,1,.2727-1.0754,2.4417,2.4417,0,0,1,.7262-1.0273,1.5321,1.5321,0,0,1,.75-.3144Zm-1.7489.1452.0229-.05H72.03ZM62.622,36.0349l1.0563-6.3764h.676l-1.0549,6.3764ZM72.03,31.4164v.05l-2.0709,4.5681h-.6932l-.6015-4.6185H69.27l.3145,2.5445q.0516.4342.1263,1.3614c.1205-.3311.2755-.7066.462-1.1269l1.22-2.779Zm0,2.3223a4.2505,4.2505,0,0,0-.0229.4434,3.4265,3.4265,0,0,0,.0229.404v-.8474Zm-7.6123,2.2962.7649-4.6185h.564l-.1306.8046a2.92,2.92,0,0,1,.7191-.7112,1.2015,1.2015,0,0,1,.6272-.1989.8783.8783,0,0,1,.6874.2969,1.2189,1.2189,0,0,1,.2627.8388,5.43,5.43,0,0,1-.0934.7914l-.4621,2.7969h-.6272l.488-2.9276a4.3688,4.3688,0,0,0,.0718-.634.5234.5234,0,0,0-.132-.3771.4814.4814,0,0,0-.36-.1365,1.1107,1.1107,0,0,0-.8467.43,3.0852,3.0852,0,0,0-.5526,1.4964L65.04,36.0349Z"/><path class="cls-2" d="M194.3865,34.4568l.6259-.049a1.24,1.24,0,0,0,.2395.8447.838.838,0,0,0,.6645.2776.8794.8794,0,0,0,.6057-.1974.65.65,0,0,0,.2224-.5063.6314.6314,0,0,0-.1393-.4009,2.155,2.155,0,0,0-.6171-.4349,4.2475,4.2475,0,0,1-.7219-.4543,1.0859,1.0859,0,0,1-.2712-.3875,1.2907,1.2907,0,0,1-.0962-.5106,1.3153,1.3153,0,0,1,.3617-.9532,1.2626,1.2626,0,0,1,.95-.3741,1.38,1.38,0,0,1,1.0306.386,1.5215,1.5215,0,0,1,.3946,1.0764l-.6142.0519a.9586.9586,0,0,0-.2412-.67.8182.8182,0,0,0-.6157-.2346.6935.6935,0,0,0-.4922.1752.5516.5516,0,0,0-.0761.7513,2.0241,2.0241,0,0,0,.577.3948,3.5362,3.5362,0,0,1,.904.6177,1.3514,1.3514,0,0,1,.2943.8789,1.3872,1.3872,0,0,1-.3932.9872,1.6562,1.6562,0,0,1-2.193-.0045,1.632,1.632,0,0,1-.399-1.1787Z"/><path class="cls-1" d="M7.1045.0271h52.746V36.1958H7.1045C3.1971,36.1958,0,33.3165,0,29.7974V6.4254C0,2.9064,3.1971.0271,7.1045.0271Z"/><rect class="cls-3" x="9.7816" y="9.254" width="1.1222" height="1.1222"/><rect class="cls-3" x="9.7816" y="10.5191" width="1.1222" height="1.1222"/><rect class="cls-3" x="8.5053" y="10.5191" width="1.1222" height="1.1222"/><rect class="cls-3" x="7.2292" y="10.5191" width="1.1222" height="1.1222"/><rect class="cls-3" x="8.5194" y="11.7843" width="1.1222" height="1.1222"/><rect class="cls-3" x="7.2292" y="11.7843" width="1.1222" height="1.1222"/><rect class="cls-3" x="8.8274" y="13.0494" width="1.1222" height="1.1222"/><rect class="cls-3" x="7.5231" y="13.0494" width="1.1222" height="1.1222"/><rect class="cls-3" x="6.219" y="13.0494" width="1.1222" height="1.1222"/><rect class="cls-3" x="8.8274" y="14.3145" width="1.1222" height="1.1222"/><rect class="cls-3" x="7.5231" y="14.3145" width="1.1222" height="1.1222"/><rect class="cls-3" x="6.219" y="14.3145" width="1.1222" height="1.1222"/><rect class="cls-3" x="6.1393" y="15.5796" width="1.1222" height="1.1221"/><rect class="cls-3" x="4.8491" y="15.5796" width="1.1222" height="1.1221"/><rect class="cls-3" x="6.1393" y="16.8447" width="1.1222" height="1.1222"/><rect class="cls-3" x="4.8491" y="16.8447" width="1.1222" height="1.1222"/><rect class="cls-3" x="7.4576" y="18.1098" width="1.1222" height="1.1222"/><rect class="cls-3" x="6.1533" y="18.1098" width="1.1222" height="1.1222"/><rect class="cls-3" x="4.8491" y="18.1098" width="1.1222" height="1.1222"/><rect class="cls-3" x="7.3994" y="19.3749" width="1.1222" height="1.1222"/><rect class="cls-3" x="6.1092" y="19.3749" width="1.1222" height="1.1222"/><rect class="cls-3" x="7.3994" y="20.64" width="1.1222" height="1.1222"/><rect class="cls-3" x="6.1092" y="20.64" width="1.1222" height="1.1222"/><rect class="cls-3" x="8.7176" y="21.9052" width="1.1222" height="1.1222"/><rect class="cls-3" x="7.4133" y="21.9052" width="1.1222" height="1.1222"/><rect class="cls-3" x="6.1092" y="21.9052" width="1.1222" height="1.1222"/><rect class="cls-3" x="8.7176" y="23.1702" width="1.1222" height="1.1222"/><rect class="cls-3" x="11.1515" y="25.3608" width="1.1222" height="1.1222"/><rect class="cls-3" x="9.8472" y="25.3608" width="1.1222" height="1.1222"/><rect class="cls-3" x="8.543" y="25.3608" width="1.1222" height="1.1222"/><rect class="cls-3" x="13.6155" y="26.7327" width="1.1222" height="1.1222"/><rect class="cls-3" x="12.3113" y="26.7327" width="1.1222" height="1.1222"/><rect class="cls-3" x="11.0071" y="26.7327" width="1.1222" height="1.1222"/><rect class="cls-3" x="13.6295" y="28.1047" width="1.1222" height="1.1222"/><rect class="cls-3" x="12.3393" y="28.1047" width="1.1222" height="1.1222"/><rect class="cls-3" x="17.5797" y="7.8975" width="1.1222" height="1.1222"/><rect class="cls-3" x="16.2686" y="7.8975" width="1.1222" height="1.1222"/><rect class="cls-3" x="14.9576" y="7.8975" width="1.1222" height="1.1222"/><rect class="cls-3" x="20.2019" y="7.8975" width="1.1222" height="1.1222"/><rect class="cls-3" x="18.8908" y="7.8975" width="1.1222" height="1.1222"/><rect class="cls-3" x="24.1352" y="7.8975" width="1.1222" height="1.1222"/><rect class="cls-3" x="22.8241" y="7.8975" width="1.1222" height="1.1222"/><rect class="cls-3" x="21.5129" y="7.8975" width="1.1222" height="1.1222"/><rect class="cls-3" x="26.7574" y="7.8975" width="1.1222" height="1.1222"/><rect class="cls-3" x="25.4462" y="7.8975" width="1.1222" height="1.1222"/><rect class="cls-3" x="30.6905" y="7.8975" width="1.1222" height="1.1222"/><rect class="cls-3" x="29.3795" y="7.8975" width="1.1222" height="1.1222"/><rect class="cls-3" x="28.0684" y="7.8975" width="1.1222" height="1.1222"/><rect class="cls-3" x="33.3128" y="7.8975" width="1.1222" height="1.1222"/><rect class="cls-3" x="32.0016" y="7.8975" width="1.1222" height="1.1222"/><rect class="cls-3" x="25.1133" y="9.1843" width="1.1222" height="1.1222"/><rect class="cls-3" x="23.8155" y="9.1843" width="1.1222" height="1.1222"/><rect class="cls-3" x="22.5178" y="9.1843" width="1.1222" height="1.1222"/><rect class="cls-3" x="27.7087" y="9.1843" width="1.1222" height="1.1222"/><rect class="cls-3" x="26.411" y="9.1843" width="1.1222" height="1.1222"/><rect class="cls-3" x="31.6019" y="9.1843" width="1.1222" height="1.1222"/><rect class="cls-3" x="30.3042" y="9.1843" width="1.1222" height="1.1222"/><rect class="cls-3" x="29.0064" y="9.1843" width="1.1222" height="1.1222"/><rect class="cls-3" x="34.1974" y="9.1843" width="1.1222" height="1.1222"/><rect class="cls-3" x="32.8996" y="9.1843" width="1.1222" height="1.1222"/><rect class="cls-3" x="25.1133" y="10.4711" width="1.1222" height="1.1222"/><rect class="cls-3" x="23.8155" y="10.4711" width="1.1222" height="1.1222"/><rect class="cls-3" x="22.5178" y="10.4711" width="1.1222" height="1.1222"/><rect class="cls-3" x="27.7087" y="10.4711" width="1.1222" height="1.1222"/><rect class="cls-3" x="26.411" y="10.4711" width="1.1222" height="1.1222"/><rect class="cls-3" x="31.6019" y="10.4711" width="1.1222" height="1.1222"/><rect class="cls-3" x="30.3042" y="10.4711" width="1.1222" height="1.1222"/><rect class="cls-3" x="29.0064" y="10.4711" width="1.1222" height="1.1222"/><rect class="cls-3" x="34.1974" y="10.4711" width="1.1222" height="1.1222"/><rect class="cls-3" x="32.8996" y="10.4711" width="1.1222" height="1.1222"/><rect class="cls-3" x="26.2053" y="11.7578" width="1.1222" height="1.1222"/><rect class="cls-3" x="24.9076" y="11.7578" width="1.1222" height="1.1222"/><rect class="cls-3" x="23.6098" y="11.7578" width="1.1222" height="1.1222"/><rect class="cls-3" x="28.8007" y="11.7578" width="1.1222" height="1.1222"/><rect class="cls-3" x="27.503" y="11.7578" width="1.1222" height="1.1222"/><rect class="cls-3" x="31.3962" y="11.7578" width="1.1222" height="1.1222"/><rect class="cls-3" x="30.0985" y="11.7578" width="1.1222" height="1.1222"/><rect class="cls-3" x="23.6572" y="13.0447" width="1.1222" height="1.1222"/><rect class="cls-3" x="22.3595" y="13.0447" width="1.1222" height="1.1222"/><rect class="cls-3" x="21.0618" y="13.0447" width="1.1222" height="1.1222"/><rect class="cls-3" x="26.2527" y="13.0447" width="1.1222" height="1.1222"/><rect class="cls-3" x="24.9549" y="13.0447" width="1.1222" height="1.1222"/><rect class="cls-3" x="30.1459" y="13.0447" width="1.1222" height="1.1222"/><rect class="cls-3" x="28.8482" y="13.0447" width="1.1222" height="1.1222"/><rect class="cls-3" x="27.5504" y="13.0447" width="1.1222" height="1.1222"/><rect class="cls-3" x="23.8812" y="14.3314" width="1.1222" height="1.1222"/><rect class="cls-3" x="22.5835" y="14.3314" width="1.1222" height="1.1222"/><rect class="cls-3" x="26.4767" y="14.3314" width="1.1222" height="1.1222"/><rect class="cls-3" x="25.1789" y="14.3314" width="1.1222" height="1.1222"/><rect class="cls-3" x="30.3699" y="14.3314" width="1.1222" height="1.1222"/><rect class="cls-3" x="29.0722" y="14.3314" width="1.1222" height="1.1222"/><rect class="cls-3" x="27.7744" y="14.3314" width="1.1222" height="1.1222"/><rect class="cls-3" x="25.2253" y="15.6181" width="1.1222" height="1.1221"/><rect class="cls-3" x="23.9275" y="15.6181" width="1.1222" height="1.1221"/><rect class="cls-3" x="27.8207" y="15.6181" width="1.1222" height="1.1221"/><rect class="cls-3" x="26.523" y="15.6181" width="1.1222" height="1.1221"/><rect class="cls-3" x="29.1184" y="15.6181" width="1.1222" height="1.1221"/><rect class="cls-3" x="25.2253" y="16.9048" width="1.1222" height="1.1222"/><rect class="cls-3" x="23.9275" y="16.9048" width="1.1222" height="1.1222"/><rect class="cls-3" x="27.8207" y="16.9048" width="1.1222" height="1.1222"/><rect class="cls-3" x="26.523" y="16.9048" width="1.1222" height="1.1222"/><rect class="cls-3" x="31.7139" y="16.9048" width="1.1222" height="1.1222"/><rect class="cls-3" x="30.4162" y="16.9048" width="1.1222" height="1.1222"/><rect class="cls-3" x="29.1184" y="16.9048" width="1.1222" height="1.1222"/><rect class="cls-3" x="30.0317" y="18.1915" width="1.1222" height="1.1222"/><rect class="cls-3" x="28.734" y="18.1915" width="1.1222" height="1.1222"/><rect class="cls-3" x="32.6271" y="18.1915" width="1.1222" height="1.1222"/><rect class="cls-3" x="31.3294" y="18.1915" width="1.1222" height="1.1222"/><rect class="cls-3" x="33.9249" y="18.1915" width="1.1222" height="1.1222"/><rect class="cls-3" x="30.0317" y="19.4782" width="1.1222" height="1.1222"/><rect class="cls-3" x="28.734" y="19.4782" width="1.1222" height="1.1222"/><rect class="cls-3" x="32.6271" y="19.4782" width="1.1222" height="1.1222"/><rect class="cls-3" x="31.3294" y="19.4782" width="1.1222" height="1.1222"/><rect class="cls-3" x="33.9249" y="19.4782" width="1.1222" height="1.1222"/><rect class="cls-3" x="30.0317" y="20.7651" width="1.1222" height="1.1222"/><rect class="cls-3" x="28.734" y="20.7651" width="1.1222" height="1.1222"/><rect class="cls-3" x="32.6271" y="20.7651" width="1.1222" height="1.1222"/><rect class="cls-3" x="31.3294" y="20.7651" width="1.1222" height="1.1222"/><rect class="cls-3" x="36.5203" y="20.7651" width="1.1222" height="1.1222"/><rect class="cls-3" x="35.2226" y="20.7651" width="1.1222" height="1.1222"/><rect class="cls-3" x="33.9249" y="20.7651" width="1.1222" height="1.1222"/><rect class="cls-3" x="31.3294" y="22.0518" width="1.1222" height="1.1222"/><rect class="cls-3" x="30.0317" y="22.0518" width="1.1222" height="1.1222"/><rect class="cls-3" x="28.734" y="22.0518" width="1.1222" height="1.1222"/><rect class="cls-3" x="33.9249" y="22.0518" width="1.1222" height="1.1222"/><rect class="cls-3" x="32.6271" y="22.0518" width="1.1222" height="1.1222"/><rect class="cls-3" x="37.8181" y="22.0518" width="1.1222" height="1.1222"/><rect class="cls-3" x="36.5203" y="22.0518" width="1.1222" height="1.1222"/><rect class="cls-3" x="35.2226" y="22.0518" width="1.1222" height="1.1222"/><rect class="cls-3" x="31.3294" y="23.3386" width="1.1222" height="1.1222"/><rect class="cls-3" x="30.0317" y="23.3386" width="1.1222" height="1.1222"/><rect class="cls-3" x="28.734" y="23.3386" width="1.1222" height="1.1222"/><rect class="cls-3" x="33.9249" y="23.3386" width="1.1222" height="1.1222"/><rect class="cls-3" x="32.6271" y="23.3386" width="1.1222" height="1.1222"/><rect class="cls-3" x="37.8181" y="23.3386" width="1.1222" height="1.1222"/><rect class="cls-3" x="36.5203" y="23.3386" width="1.1222" height="1.1222"/><rect class="cls-3" x="35.2226" y="23.3386" width="1.1222" height="1.1222"/><rect class="cls-3" x="32.5054" y="24.6254" width="1.1222" height="1.1222"/><rect class="cls-3" x="31.2077" y="24.6254" width="1.1222" height="1.1222"/><rect class="cls-3" x="29.91" y="24.6254" width="1.1222" height="1.1222"/><rect class="cls-3" x="35.1009" y="24.6254" width="1.1222" height="1.1222"/><rect class="cls-3" x="33.8032" y="24.6254" width="1.1222" height="1.1222"/><rect class="cls-3" x="37.6964" y="24.6254" width="1.1222" height="1.1222"/><rect class="cls-3" x="36.3986" y="24.6254" width="1.1222" height="1.1222"/><rect class="cls-3" x="32.5054" y="25.9121" width="1.1222" height="1.1222"/><rect class="cls-3" x="31.2077" y="25.9121" width="1.1222" height="1.1222"/><rect class="cls-3" x="29.91" y="25.9121" width="1.1222" height="1.1222"/><rect class="cls-3" x="35.1009" y="25.9121" width="1.1222" height="1.1222"/><rect class="cls-3" x="33.8032" y="25.9121" width="1.1222" height="1.1222"/><rect class="cls-3" x="37.6964" y="25.9121" width="1.1222" height="1.1222"/><rect class="cls-3" x="36.3986" y="25.9121" width="1.1222" height="1.1222"/><rect class="cls-3" x="33.7935" y="27.1988" width="1.1222" height="1.1222"/><rect class="cls-3" x="32.4958" y="27.1988" width="1.1222" height="1.1222"/><rect class="cls-3" x="31.198" y="27.1988" width="1.1222" height="1.1222"/><rect class="cls-3" x="36.3889" y="27.1988" width="1.1222" height="1.1222"/><rect class="cls-3" x="35.0912" y="27.1988" width="1.1222" height="1.1222"/><rect class="cls-3" x="33.7935" y="28.4857" width="1.1222" height="1.1222"/><rect class="cls-3" x="32.4958" y="28.4857" width="1.1222" height="1.1222"/><rect class="cls-3" x="31.198" y="28.4857" width="1.1222" height="1.1222"/><rect class="cls-3" x="32.4958" y="29.7724" width="1.1222" height="1.1222"/><rect class="cls-3" x="31.198" y="29.7724" width="1.1222" height="1.1222"/><rect class="cls-3" x="32.4958" y="31.0591" width="1.1222" height="1.1222"/><rect class="cls-3" x="31.198" y="31.0591" width="1.1222" height="1.1222"/><rect class="cls-3" x="31.198" y="32.3459" width="1.1222" height="1.1222"/><rect class="cls-3" x="15.173" y="6.6108" width="1.1222" height="1.1222"/><rect class="cls-3" x="13.8753" y="6.6108" width="1.1222" height="1.1222"/><rect class="cls-3" x="12.5775" y="6.6108" width="1.1222" height="1.1222"/><rect class="cls-3" x="17.7685" y="6.6108" width="1.1222" height="1.1222"/><rect class="cls-3" x="16.4707" y="6.6108" width="1.1222" height="1.1222"/><rect class="cls-3" x="21.6616" y="6.6108" width="1.1222" height="1.1222"/><rect class="cls-3" x="20.3639" y="6.6108" width="1.1222" height="1.1222"/><rect class="cls-3" x="19.0662" y="6.6108" width="1.1222" height="1.1222"/><rect class="cls-3" x="24.2571" y="6.6108" width="1.1222" height="1.1222"/><rect class="cls-3" x="22.9594" y="6.6108" width="1.1222" height="1.1222"/><rect class="cls-3" x="28.1503" y="6.6108" width="1.1222" height="1.1222"/><rect class="cls-3" x="26.8526" y="6.6108" width="1.1222" height="1.1222"/><rect class="cls-3" x="25.5549" y="6.6108" width="1.1222" height="1.1222"/><rect class="cls-3" x="33.8064" y="6.6108" width="1.1222" height="1.1222"/><rect class="cls-3" x="32.5087" y="6.6108" width="1.1222" height="1.1222"/><rect class="cls-3" x="37.6145" y="6.6108" width="1.1222" height="1.1222"/><rect class="cls-3" x="36.3168" y="6.6108" width="1.1222" height="1.1222"/><rect class="cls-3" x="17.331" y="5.3241" width="1.1222" height="1.1222"/><rect class="cls-3" x="16.0323" y="5.3241" width="1.1222" height="1.1222"/><rect class="cls-3" x="14.7336" y="5.3241" width="1.1222" height="1.1222"/><rect class="cls-3" x="19.9284" y="5.3241" width="1.1222" height="1.1222"/><rect class="cls-3" x="18.6297" y="5.3241" width="1.1222" height="1.1222"/><rect class="cls-3" x="33.7655" y="5.3241" width="1.1222" height="1.1222"/><rect class="cls-3" x="32.4677" y="5.3241" width="1.1222" height="1.1222"/><rect class="cls-3" x="31.17" y="5.3241" width="1.1222" height="1.1222"/><rect class="cls-3" x="36.361" y="5.3241" width="1.1222" height="1.1222"/><rect class="cls-3" x="35.0632" y="5.3241" width="1.1222" height="1.1222"/><rect class="cls-3" x="40.2541" y="5.3241" width="1.1222" height="1.1222"/><rect class="cls-3" x="38.9564" y="5.3241" width="1.1222" height="1.1222"/><rect class="cls-3" x="37.6587" y="5.3241" width="1.1222" height="1.1222"/><rect class="cls-3" x="41.5518" y="5.3241" width="1.1222" height="1.1222"/><rect class="cls-3" x="36.3889" y="4.0372" width="1.1222" height="1.1222"/><rect class="cls-3" x="35.0912" y="4.0372" width="1.1222" height="1.1222"/><rect class="cls-3" x="40.2821" y="4.0372" width="1.1222" height="1.1222"/><rect class="cls-3" x="38.9844" y="4.0372" width="1.1222" height="1.1222"/><rect class="cls-3" x="37.6866" y="4.0372" width="1.1222" height="1.1222"/><rect class="cls-3" x="41.5799" y="4.0372" width="1.1222" height="1.1222"/><rect class="cls-3" x="47.7303" y="6.5293" width="1.1222" height="1.1222"/><rect class="cls-3" x="46.4326" y="6.5293" width="1.1222" height="1.1222"/><rect class="cls-3" x="49.0281" y="6.5293" width="1.1222" height="1.1222"/><rect class="cls-3" x="45.1338" y="7.8289" width="1.1222" height="1.1222"/><rect class="cls-3" x="43.836" y="7.8289" width="1.1222" height="1.1222"/><rect class="cls-3" x="42.5383" y="7.8289" width="1.1222" height="1.1222"/><rect class="cls-3" x="47.7292" y="7.8289" width="1.1222" height="1.1222"/><rect class="cls-3" x="46.4315" y="7.8289" width="1.1222" height="1.1222"/><rect class="cls-3" x="50.3247" y="7.8289" width="1.1222" height="1.1222"/><rect class="cls-3" x="49.027" y="7.8289" width="1.1222" height="1.1222"/><rect class="cls-3" x="45.1338" y="9.1285" width="1.1222" height="1.1222"/><rect class="cls-3" x="43.836" y="9.1285" width="1.1222" height="1.1222"/><rect class="cls-3" x="42.5383" y="9.1285" width="1.1222" height="1.1222"/><rect class="cls-3" x="47.7292" y="9.1285" width="1.1222" height="1.1222"/><rect class="cls-3" x="46.4315" y="9.1285" width="1.1222" height="1.1222"/><rect class="cls-3" x="51.6224" y="9.1285" width="1.1222" height="1.1222"/><rect class="cls-3" x="50.3247" y="9.1285" width="1.1222" height="1.1222"/><rect class="cls-3" x="49.027" y="9.1285" width="1.1222" height="1.1222"/><rect class="cls-3" x="45.1338" y="10.428" width="1.1222" height="1.1222"/><rect class="cls-3" x="43.836" y="10.428" width="1.1222" height="1.1222"/><rect class="cls-3" x="42.5383" y="10.428" width="1.1222" height="1.1222"/><rect class="cls-3" x="47.7292" y="10.428" width="1.1222" height="1.1222"/><rect class="cls-3" x="46.4315" y="10.428" width="1.1222" height="1.1222"/><rect class="cls-3" x="51.6224" y="10.428" width="1.1222" height="1.1222"/><rect class="cls-3" x="50.3247" y="10.428" width="1.1222" height="1.1222"/><rect class="cls-3" x="49.027" y="10.428" width="1.1222" height="1.1222"/><rect class="cls-3" x="52.9201" y="10.428" width="1.1222" height="1.1222"/><rect class="cls-3" x="45.144" y="11.7556" width="1.1222" height="1.1222"/><rect class="cls-3" x="43.8412" y="11.7556" width="1.1222" height="1.1222"/><rect class="cls-3" x="42.5383" y="11.7556" width="1.1222" height="1.1222"/><rect class="cls-3" x="47.7497" y="11.7556" width="1.1222" height="1.1222"/><rect class="cls-3" x="46.4468" y="11.7556" width="1.1222" height="1.1222"/><rect class="cls-3" x="51.6584" y="11.7556" width="1.1222" height="1.1222"/><rect class="cls-3" x="50.3555" y="11.7556" width="1.1222" height="1.1222"/><rect class="cls-3" x="49.0527" y="11.7556" width="1.1222" height="1.1222"/><rect class="cls-3" x="52.9612" y="11.7556" width="1.1222" height="1.1222"/><rect class="cls-3" x="54.2642" y="11.7276" width="1.1222" height="1.1222"/><rect class="cls-3" x="45.144" y="13.0552" width="1.1222" height="1.1222"/><rect class="cls-3" x="43.8412" y="13.0552" width="1.1222" height="1.1222"/><rect class="cls-3" x="42.5383" y="13.0552" width="1.1222" height="1.1222"/><rect class="cls-3" x="47.7497" y="13.0552" width="1.1222" height="1.1222"/><rect class="cls-3" x="46.4468" y="13.0552" width="1.1222" height="1.1222"/><rect class="cls-3" x="51.6583" y="13.0552" width="1.1222" height="1.1222"/><rect class="cls-3" x="50.3554" y="13.0552" width="1.1222" height="1.1222"/><rect class="cls-3" x="49.0526" y="13.0552" width="1.1222" height="1.1222"/><rect class="cls-3" x="52.9612" y="13.0552" width="1.1222" height="1.1222"/><rect class="cls-3" x="45.144" y="14.3827" width="1.1222" height="1.1222"/><rect class="cls-3" x="43.8412" y="14.3827" width="1.1222" height="1.1222"/><rect class="cls-3" x="42.5383" y="14.3827" width="1.1222" height="1.1222"/><rect class="cls-3" x="47.7497" y="14.3827" width="1.1222" height="1.1222"/><rect class="cls-3" x="46.4468" y="14.3827" width="1.1222" height="1.1222"/><rect class="cls-3" x="51.6584" y="14.3827" width="1.1222" height="1.1222"/><rect class="cls-3" x="50.3555" y="14.3827" width="1.1222" height="1.1222"/><rect class="cls-3" x="49.0527" y="14.3827" width="1.1222" height="1.1222"/><rect class="cls-3" x="52.9612" y="14.3827" width="1.1222" height="1.1222"/><rect class="cls-3" x="54.2642" y="14.3547" width="1.1222" height="1.1222"/><rect class="cls-3" x="44.1722" y="15.7103" width="1.1222" height="1.1221"/><rect class="cls-3" x="42.8653" y="15.7103" width="1.1222" height="1.1221"/><rect class="cls-3" x="41.5583" y="15.7103" width="1.1222" height="1.1221"/><rect class="cls-3" x="46.7862" y="15.7103" width="1.1222" height="1.1221"/><rect class="cls-3" x="45.4793" y="15.7103" width="1.1222" height="1.1221"/><rect class="cls-3" x="50.7072" y="15.7103" width="1.1222" height="1.1221"/><rect class="cls-3" x="49.4002" y="15.7103" width="1.1222" height="1.1221"/><rect class="cls-3" x="48.0933" y="15.7103" width="1.1222" height="1.1221"/><rect class="cls-3" x="52.0142" y="15.7103" width="1.1222" height="1.1221"/><rect class="cls-3" x="53.3212" y="15.6823" width="1.1222" height="1.1221"/><rect class="cls-3" x="54.6282" y="15.7103" width="1.1222" height="1.1221"/><rect class="cls-3" x="44.1722" y="17.0377" width="1.1222" height="1.1222"/><rect class="cls-3" x="42.8653" y="17.0377" width="1.1222" height="1.1222"/><rect class="cls-3" x="41.5583" y="17.0377" width="1.1222" height="1.1222"/><rect class="cls-3" x="46.7862" y="17.0377" width="1.1222" height="1.1222"/><rect class="cls-3" x="45.4793" y="17.0377" width="1.1222" height="1.1222"/><rect class="cls-3" x="50.7072" y="17.0377" width="1.1222" height="1.1222"/><rect class="cls-3" x="49.4002" y="17.0377" width="1.1222" height="1.1222"/><rect class="cls-3" x="48.0933" y="17.0377" width="1.1222" height="1.1222"/><rect class="cls-3" x="52.0142" y="17.0377" width="1.1222" height="1.1222"/><rect class="cls-3" x="53.3212" y="17.0097" width="1.1222" height="1.1222"/><rect class="cls-3" x="54.6282" y="17.0377" width="1.1222" height="1.1222"/><rect class="cls-3" x="45.4883" y="18.3653" width="1.1222" height="1.1222"/><rect class="cls-3" x="44.1813" y="18.3653" width="1.1222" height="1.1222"/><rect class="cls-3" x="42.8743" y="18.3653" width="1.1222" height="1.1222"/><rect class="cls-3" x="48.1023" y="18.3653" width="1.1222" height="1.1222"/><rect class="cls-3" x="46.7953" y="18.3653" width="1.1222" height="1.1222"/><rect class="cls-3" x="52.0232" y="18.3653" width="1.1222" height="1.1222"/><rect class="cls-3" x="50.7163" y="18.3653" width="1.1222" height="1.1222"/><rect class="cls-3" x="49.4093" y="18.3653" width="1.1222" height="1.1222"/><rect class="cls-3" x="53.3303" y="18.3653" width="1.1222" height="1.1222"/><rect class="cls-3" x="54.6372" y="18.3373" width="1.1222" height="1.1222"/><rect class="cls-3" x="46.8043" y="19.6649" width="1.1222" height="1.1222"/><rect class="cls-3" x="45.4973" y="19.6649" width="1.1222" height="1.1222"/><rect class="cls-3" x="44.1904" y="19.6649" width="1.1222" height="1.1222"/><rect class="cls-3" x="49.4183" y="19.6649" width="1.1222" height="1.1222"/><rect class="cls-3" x="48.1113" y="19.6649" width="1.1222" height="1.1222"/><rect class="cls-3" x="53.3393" y="19.6649" width="1.1222" height="1.1222"/><rect class="cls-3" x="52.0323" y="19.6649" width="1.1222" height="1.1222"/><rect class="cls-3" x="50.7253" y="19.6649" width="1.1222" height="1.1222"/><rect class="cls-3" x="54.6463" y="19.6649" width="1.1222" height="1.1222"/><rect class="cls-3" x="49.1284" y="20.9645" width="1.1222" height="1.1222"/><rect class="cls-3" x="47.8214" y="20.9645" width="1.1222" height="1.1222"/><rect class="cls-3" x="46.5144" y="20.9645" width="1.1222" height="1.1222"/><rect class="cls-3" x="51.7424" y="20.9645" width="1.1222" height="1.1222"/><rect class="cls-3" x="50.4354" y="20.9645" width="1.1222" height="1.1222"/><rect class="cls-3" x="54.3563" y="20.9645" width="1.1222" height="1.1222"/><rect class="cls-3" x="53.0494" y="20.9645" width="1.1222" height="1.1222"/><rect class="cls-3" x="49.1284" y="22.264" width="1.1222" height="1.1222"/><rect class="cls-3" x="47.8214" y="22.264" width="1.1222" height="1.1222"/><rect class="cls-3" x="46.5144" y="22.264" width="1.1222" height="1.1222"/><rect class="cls-3" x="51.7424" y="22.264" width="1.1222" height="1.1222"/><rect class="cls-3" x="50.4354" y="22.264" width="1.1222" height="1.1222"/><rect class="cls-3" x="54.3563" y="22.264" width="1.1222" height="1.1222"/><rect class="cls-3" x="53.0494" y="22.264" width="1.1222" height="1.1222"/><rect class="cls-3" x="49.1284" y="23.5635" width="1.1222" height="1.1222"/><rect class="cls-3" x="47.8214" y="23.5635" width="1.1222" height="1.1222"/><rect class="cls-3" x="46.5144" y="23.5635" width="1.1222" height="1.1222"/><rect class="cls-3" x="51.7424" y="23.5635" width="1.1222" height="1.1222"/><rect class="cls-3" x="50.4354" y="23.5635" width="1.1222" height="1.1222"/><rect class="cls-3" x="53.0494" y="23.5635" width="1.1222" height="1.1222"/><rect class="cls-3" x="49.1284" y="24.8631" width="1.1222" height="1.1222"/><rect class="cls-3" x="47.8214" y="24.8631" width="1.1222" height="1.1222"/><rect class="cls-3" x="46.5144" y="24.8631" width="1.1222" height="1.1222"/><rect class="cls-3" x="51.7424" y="24.8631" width="1.1222" height="1.1222"/><rect class="cls-3" x="50.4354" y="24.8631" width="1.1222" height="1.1222"/><rect class="cls-3" x="50.1924" y="26.1627" width="1.1222" height="1.1222"/><rect class="cls-3" x="48.8854" y="26.1627" width="1.1222" height="1.1222"/><rect class="cls-3" x="47.5784" y="26.1627" width="1.1222" height="1.1222"/><rect class="cls-3" x="48.8854" y="27.4623" width="1.1222" height="1.1222"/><rect class="cls-3" x="47.5784" y="27.4623" width="1.1222" height="1.1222"/><rect class="cls-3" x="47.5784" y="28.7618" width="1.1222" height="1.1222"/></g></g></svg>