<?xml version="1.0" encoding="utf-8"?>
<!-- Generator: Adobe Illustrator 16.0.0, SVG Export Plug-In . SVG Version: 6.00 Build 0)  -->
<!DOCTYPE svg PUBLIC "-//W3C//DTD SVG 1.1//EN" "http://www.w3.org/Graphics/SVG/1.1/DTD/svg11.dtd">
<svg version="1.1" id="Capa_1" xmlns="http://www.w3.org/2000/svg" xmlns:xlink="http://www.w3.org/1999/xlink" x="0px" y="0px"
	 width="80.697px" height="88px" viewBox="0 0 80.697 88" enable-background="new 0 0 80.697 88" xml:space="preserve">
<g>
	<g>
		<path fill="#056358" d="M48.064,25.398H33.763c-0.329,0-0.55-0.219-0.55-0.549s0.221-0.551,0.55-0.551h14.302
			c0.329,0,0.55,0.221,0.55,0.551S48.394,25.398,48.064,25.398z"/>
		<path fill="#056358" d="M48.064,28.699H33.763c-0.329,0-0.55-0.219-0.55-0.551c0-0.33,0.221-0.549,0.55-0.549h14.302
			c0.329,0,0.55,0.219,0.55,0.549C48.614,28.48,48.394,28.699,48.064,28.699z"/>
		<path fill="#056358" d="M48.064,31.449H33.763c-0.329,0-0.55-0.219-0.55-0.549s0.221-0.551,0.55-0.551h14.302
			c0.329,0,0.55,0.221,0.55,0.551S48.394,31.449,48.064,31.449z"/>
		<path fill="#056358" d="M48.064,22.1H33.763c-0.329,0-0.55-0.221-0.55-0.551S33.434,21,33.763,21h14.302
			c0.329,0,0.55,0.219,0.55,0.549S48.394,22.1,48.064,22.1z"/>
		<path fill="#056358" d="M48.064,18.799H33.763c-0.329,0-0.55-0.219-0.55-0.549s0.221-0.551,0.55-0.551h14.302
			c0.329,0,0.55,0.221,0.55,0.551S48.394,18.799,48.064,18.799z"/>
		<path fill="#056358" d="M53.014,35.299V15.443L47.569,10h-16.61c-1.155,0-2.145,0.99-2.145,2.145v23.154h2.199v-23.1h15.399v2.145
			c0,1.211,0.99,2.201,2.201,2.201h2.2v18.754"/>
		<path fill="#056358" d="M57.359,35.85c-0.165-0.439-0.221-0.66-0.386-1.1c-0.33-0.936-1.319-1.65-2.199-1.65
			c-0.221,0-0.441,0-0.661,0v1.1c0.33,0,0.661,0,0.991,0c0.273,0,0.604,0.221,0.715,0.551c0.164,0.439,0.219,0.66,0.385,1.1
			c0.109,0.33-0.056,0.549-0.385,0.549c-9.955,0-19.91,0-29.865,0c-0.331,0-0.495-0.219-0.386-0.549
			c0.166-0.439,0.221-0.66,0.386-1.1c0.11-0.33,0.439-0.551,0.716-0.551c0.329,0,0.658,0,0.988,0v-1.1c-0.22,0-0.439,0-0.659,0
			c-0.881,0-1.815,0.715-2.2,1.65c-0.164,0.439-0.221,0.66-0.385,1.1c-0.33,0.936,0.164,1.65,1.1,1.65c10.176,0,20.404,0,30.58,0
			C57.194,37.5,57.689,36.785,57.359,35.85z"/>
		<path fill="#056358" d="M73.309,41.35h-0.054l-6.712-12.32c-0.438-0.824-1.54-1.43-2.419-1.43h-8.911v2.199h9.187l6.324,11.551
			h-59.73l6.325-11.551h9.186V27.6h-8.855c-0.936,0-1.979,0.66-2.419,1.43L8.463,41.35H8.408c-0.055,0-0.055,0.715-0.055,1.65v35.75
			c0,0.934,0.715,1.648,1.65,1.648h61.711c0.935,0,1.649-0.715,1.649-1.648V43C73.364,42.064,73.309,41.35,73.309,41.35z
			 M71.164,78.199H10.498V43.551h60.666V78.199z"/>
	</g>
</g>
<g>
	<g>
		<path fill="#FA6271" d="M50.07,25.398H35.77c-0.328,0-0.549-0.219-0.549-0.549s0.221-0.551,0.549-0.551H50.07
			c0.329,0,0.55,0.221,0.55,0.551S50.399,25.398,50.07,25.398z"/>
		<path fill="#FA6271" d="M50.07,28.699H35.77c-0.328,0-0.549-0.219-0.549-0.551c0-0.33,0.221-0.549,0.549-0.549H50.07
			c0.329,0,0.55,0.219,0.55,0.549C50.62,28.48,50.399,28.699,50.07,28.699z"/>
		<path fill="#FA6271" d="M50.07,31.449H35.77c-0.328,0-0.549-0.219-0.549-0.549s0.221-0.551,0.549-0.551H50.07
			c0.329,0,0.55,0.221,0.55,0.551S50.399,31.449,50.07,31.449z"/>
		<path fill="#FA6271" d="M50.07,22.1H35.77c-0.328,0-0.549-0.221-0.549-0.551S35.441,21,35.77,21H50.07
			c0.329,0,0.55,0.219,0.55,0.549S50.399,22.1,50.07,22.1z"/>
		<path fill="#FA6271" d="M50.07,18.799H35.77c-0.328,0-0.549-0.219-0.549-0.549s0.221-0.551,0.549-0.551H50.07
			c0.329,0,0.55,0.221,0.55,0.551S50.399,18.799,50.07,18.799z"/>
		<path fill="#FA6271" d="M55.02,35.299V15.443L49.575,10H32.967c-1.156,0-2.146,0.99-2.146,2.145v23.154h2.199v-23.1h15.4v2.145
			c0,1.211,0.99,2.201,2.2,2.201h2.2v18.754"/>
		<path fill="#FA6271" d="M59.365,35.85c-0.165-0.439-0.221-0.66-0.386-1.1c-0.33-0.936-1.319-1.65-2.199-1.65
			c-0.221,0-0.441,0-0.661,0v1.1c0.33,0,0.661,0,0.991,0c0.273,0,0.604,0.221,0.715,0.551c0.164,0.439,0.219,0.66,0.385,1.1
			c0.109,0.33-0.056,0.549-0.385,0.549c-9.954,0-19.909,0-29.864,0c-0.33,0-0.496-0.219-0.385-0.549
			c0.164-0.439,0.219-0.66,0.385-1.1c0.11-0.33,0.439-0.551,0.715-0.551c0.33,0,0.659,0,0.989,0v-1.1c-0.22,0-0.439,0-0.659,0
			c-0.881,0-1.816,0.715-2.2,1.65c-0.165,0.439-0.22,0.66-0.385,1.1c-0.331,0.936,0.165,1.65,1.1,1.65c10.176,0,20.404,0,30.579,0
			C59.2,37.5,59.695,36.785,59.365,35.85z"/>
		<path fill="#FA6271" d="M75.314,41.35h-0.054l-6.712-12.32c-0.438-0.824-1.54-1.43-2.419-1.43h-8.911v2.199h9.187l6.324,11.551H13
			l6.326-11.551h9.185V27.6h-8.855c-0.935,0-1.979,0.66-2.419,1.43l-6.766,12.32h-0.055c-0.056,0-0.056,0.715-0.056,1.65v35.75
			c0,0.934,0.716,1.648,1.65,1.648h61.71c0.935,0,1.649-0.715,1.649-1.648V43C75.37,42.064,75.314,41.35,75.314,41.35z
			 M73.17,78.199H12.505V43.551H73.17V78.199z"/>
	</g>
</g>
</svg>
